<svg width="50" height="50" viewBox="0 0 50 50" fill="none" xmlns="http://www.w3.org/2000/svg">
<circle cx="24.8753" cy="24.7526" r="23.7526" stroke="white" stroke-width="2"/>
<g clip-path="url(#clip0_1_274)">
<path d="M28.9316 16.9213C28.9316 15.8352 28.5043 14.7936 27.7436 14.0256C26.9829 13.2576 25.9512 12.8262 24.8755 12.8262C23.7998 12.8262 22.7681 13.2576 22.0074 14.0256C21.2467 14.7936 20.8194 15.8352 20.8194 16.9213C20.8194 18.0074 21.2467 19.049 22.0074 19.817C22.7681 20.5849 23.7998 21.0164 24.8755 21.0164C25.9512 21.0164 26.9829 20.5849 27.7436 19.817C28.5043 19.049 28.9316 18.0074 28.9316 16.9213ZM18.3857 16.9213C18.3857 15.1836 19.0695 13.517 20.2866 12.2882C21.5036 11.0595 23.1543 10.3691 24.8755 10.3691C26.5967 10.3691 28.2474 11.0595 29.4644 12.2882C30.6815 13.517 31.3652 15.1836 31.3652 16.9213C31.3652 18.659 30.6815 20.3256 29.4644 21.5544C28.2474 22.7831 26.5967 23.4734 24.8755 23.4734C23.1543 23.4734 21.5036 22.7831 20.2866 21.5544C19.0695 20.3256 18.3857 18.659 18.3857 16.9213ZM16.018 34.1207H33.733C33.2818 30.8805 30.5236 28.3876 27.1925 28.3876H22.5585C19.2274 28.3876 16.4692 30.8805 16.018 34.1207ZM13.5184 35.0574C13.5184 30.0154 17.5644 25.9305 22.5585 25.9305H27.1925C32.1866 25.9305 36.2326 30.0154 36.2326 35.0574C36.2326 35.8969 35.5582 36.5778 34.7267 36.5778H15.0243C14.1928 36.5778 13.5184 35.8969 13.5184 35.0574Z" fill="white"/>
</g>
<defs>
<clipPath id="clip0_1_274">
<rect width="22.7141" height="26.2086" fill="white" transform="translate(13.5184 10.3691)"/>
</clipPath>
</defs>
</svg>
