<svg width="500" height="500" viewBox="0 0 500 500" fill="none" xmlns="http://www.w3.org/2000/svg">
<path d="M79.27 230.11C-15 284.55 -15 372.81 79.27 427.25C173.54 481.69 326.44 481.69 420.73 427.25C515.02 372.81 515.02 284.55 420.73 230.11C326.44 175.67 173.56 175.67 79.27 230.11Z" fill="#FAFAFA"/>
<path d="M444.59 352.47C444.59 352.47 438.81 326.17 446.97 299.76C451.53 285 460.71 277.83 466.51 276.91C473.01 275.91 479.92 281.75 474.58 291.59C469.51 300.95 459.05 305.15 453.95 329.16C450.59 345 451.73 355.3 451.73 355.3L444.59 352.47Z" fill="#BA68C8"/>
<path opacity="0.5" d="M444.59 352.47C444.59 352.47 438.81 326.17 446.97 299.76C451.53 285 460.71 277.83 466.51 276.91C473.01 275.91 479.92 281.75 474.58 291.59C469.51 300.95 459.05 305.15 453.95 329.16C450.59 345 451.73 355.3 451.73 355.3L444.59 352.47Z" fill="white"/>
<path d="M448.33 345.56C448.435 345.543 448.53 345.485 448.594 345.399C448.657 345.313 448.684 345.206 448.67 345.1C444.45 316.23 457.26 291.3 467.67 282.82C467.714 282.787 467.75 282.745 467.776 282.698C467.803 282.65 467.82 282.597 467.826 282.543C467.831 282.489 467.826 282.434 467.809 282.382C467.793 282.329 467.766 282.281 467.73 282.24C467.662 282.158 467.564 282.105 467.457 282.094C467.351 282.083 467.244 282.114 467.16 282.18C456.57 290.79 443.58 316.03 447.84 345.18C447.843 345.239 447.859 345.296 447.886 345.348C447.914 345.4 447.952 345.446 447.998 345.482C448.045 345.518 448.098 345.544 448.156 345.557C448.213 345.571 448.272 345.572 448.33 345.56Z" fill="white"/>
<path d="M457 356.76C456.68 350.02 459 342.59 465.42 333.95C471.84 325.31 481.27 316.75 478.5 310.69C475.73 304.63 467.5 307.54 462.22 312.15C456.94 316.76 446.22 333.15 453.27 355.86L457 356.76Z" fill="#BA68C8"/>
<path opacity="0.65" d="M457 356.76C456.68 350.02 459 342.59 465.42 333.95C471.84 325.31 481.27 316.75 478.5 310.69C475.73 304.63 467.5 307.54 462.22 312.15C456.94 316.76 446.22 333.15 453.27 355.86L457 356.76Z" fill="white"/>
<path d="M453.94 349.73C454.032 349.704 454.111 349.647 454.164 349.568C454.217 349.49 454.241 349.394 454.23 349.3C452.71 335.21 465.42 314.83 472.31 310.78C472.404 310.724 472.472 310.633 472.5 310.528C472.527 310.422 472.511 310.309 472.455 310.215C472.399 310.121 472.309 310.053 472.203 310.025C472.097 309.998 471.984 310.014 471.89 310.07C464.68 314.32 451.84 334.74 453.42 349.38C453.425 349.434 453.441 349.486 453.466 349.534C453.491 349.582 453.526 349.624 453.568 349.659C453.61 349.693 453.658 349.719 453.71 349.735C453.762 349.75 453.816 349.756 453.87 349.75L453.94 349.73Z" fill="white"/>
<path d="M50.73 344.28L58 340.1C58 340.1 62.31 322.2 60.59 306.1C58.18 283.45 43.27 274.93 37.59 276.89C31.91 278.85 30.28 285.43 39.66 298.89C45.18 306.87 52 323.44 50.73 344.28Z" fill="#BA68C8"/>
<g opacity="0.65">
<path d="M50.73 344.28L58 340.1C58 340.1 62.31 322.2 60.59 306.1C58.18 283.45 43.27 274.93 37.59 276.89C31.91 278.85 30.28 285.43 39.66 298.89C45.18 306.87 52 323.44 50.73 344.28Z" fill="white"/>
</g>
<path d="M53.73 335.49H53.66C53.5295 335.463 53.4146 335.387 53.3398 335.276C53.2651 335.166 53.2364 335.031 53.26 334.9C57.26 314.02 49.94 290.55 40.9 280.78C40.8534 280.734 40.8164 280.68 40.7912 280.62C40.7659 280.56 40.7529 280.495 40.7529 280.43C40.7529 280.365 40.7659 280.3 40.7912 280.24C40.8164 280.18 40.8534 280.126 40.9 280.08C40.9465 280.033 41.0018 279.996 41.0627 279.971C41.1236 279.945 41.189 279.932 41.255 279.932C41.321 279.932 41.3864 279.945 41.4473 279.971C41.5082 279.996 41.5635 280.033 41.61 280.08C50.81 290.08 58.25 313.88 54.22 335.08C54.1972 335.194 54.1363 335.297 54.0472 335.371C53.9581 335.446 53.8462 335.488 53.73 335.49Z" fill="white"/>
<path d="M32.5201 354.8C31.4401 355.35 28.5201 352.89 27.7601 352.29C26.3912 351.244 25.3107 349.868 24.6201 348.29C23.8505 346.496 23.6582 344.508 24.0701 342.6C24.288 341.58 24.5788 340.578 24.9401 339.6C25.2601 338.6 25.5901 337.69 25.9401 336.73C26.3255 335.805 26.5194 334.812 26.5101 333.81C26.3601 331.81 24.6601 330.32 23.1201 329.04C21.4101 327.62 19.6401 325.77 19.7701 323.37C19.9959 321.514 20.8291 319.784 22.1401 318.45C23.3601 317.06 24.7901 315.84 25.9001 314.36C26.77 313.336 27.2608 312.043 27.2901 310.7C27.2268 309.871 26.9918 309.064 26.6001 308.33C25.702 306.795 24.9295 305.19 24.2901 303.53C23.7901 301.82 23.9801 299.74 25.3501 298.6C25.9562 298.194 26.6373 297.914 27.3534 297.774C28.0694 297.635 28.8061 297.641 29.5201 297.79C30.8745 298.02 32.1616 298.546 33.2901 299.33C37.0001 301.64 38.9401 306.26 42.9001 308.09C44.4782 308.671 46.0914 309.152 47.7301 309.53C48.552 309.731 49.3227 310.101 49.9927 310.618C50.6627 311.135 51.217 311.786 51.6201 312.53C52.9601 315.53 50.0201 319.08 50.9101 322.28C51.6901 325.11 54.3401 326.28 55.7301 328.89C56.2919 330.03 56.4775 331.318 56.2601 332.57C56.0199 334.693 55.3928 336.753 54.4101 338.65C53.3042 340.595 52.082 342.472 50.7501 344.27L32.5201 354.8Z" fill="#BA68C8"/>
<g opacity="0.3">
<path d="M32.5201 354.8C31.4401 355.35 28.5201 352.89 27.7601 352.29C26.3912 351.244 25.3107 349.868 24.6201 348.29C23.8505 346.496 23.6582 344.508 24.0701 342.6C24.288 341.58 24.5788 340.578 24.9401 339.6C25.2601 338.6 25.5901 337.69 25.9401 336.73C26.3255 335.805 26.5194 334.812 26.5101 333.81C26.3601 331.81 24.6601 330.32 23.1201 329.04C21.4101 327.62 19.6401 325.77 19.7701 323.37C19.9959 321.514 20.8291 319.784 22.1401 318.45C23.3601 317.06 24.7901 315.84 25.9001 314.36C26.77 313.336 27.2608 312.043 27.2901 310.7C27.2268 309.871 26.9918 309.064 26.6001 308.33C25.702 306.795 24.9295 305.19 24.2901 303.53C23.7901 301.82 23.9801 299.74 25.3501 298.6C25.9562 298.194 26.6373 297.914 27.3534 297.774C28.0694 297.635 28.8061 297.641 29.5201 297.79C30.8745 298.02 32.1616 298.546 33.2901 299.33C37.0001 301.64 38.9401 306.26 42.9001 308.09C44.4782 308.671 46.0914 309.152 47.7301 309.53C48.552 309.731 49.3227 310.101 49.9927 310.618C50.6627 311.135 51.217 311.786 51.6201 312.53C52.9601 315.53 50.0201 319.08 50.9101 322.28C51.6901 325.11 54.3401 326.28 55.7301 328.89C56.2919 330.03 56.4775 331.318 56.2601 332.57C56.0199 334.693 55.3928 336.753 54.4101 338.65C53.3042 340.595 52.082 342.472 50.7501 344.27L32.5201 354.8Z" fill="white"/>
</g>
<path d="M43.0001 349.34C42.8744 349.327 42.7588 349.266 42.6783 349.168C42.5978 349.071 42.5589 348.946 42.5701 348.82C44.3001 330.03 36.4801 308.82 30.3301 302.44C30.2427 302.35 30.1938 302.23 30.1938 302.105C30.1938 301.98 30.2427 301.86 30.3301 301.77C30.4225 301.684 30.544 301.637 30.6701 301.637C30.7962 301.637 30.9176 301.684 31.0101 301.77C37.2801 308.26 45.2601 329.85 43.5001 348.89C43.4975 348.953 43.4825 349.014 43.4559 349.071C43.4292 349.128 43.3915 349.178 43.3449 349.22C43.2983 349.262 43.2438 349.294 43.1846 349.315C43.1254 349.336 43.0626 349.344 43.0001 349.34Z" fill="white"/>
<path d="M41.1301 326.17H40.9901C36.5939 324.71 32.0495 323.74 27.4401 323.28C27.3154 323.265 27.2013 323.203 27.1213 323.106C27.0413 323.009 27.0015 322.885 27.0101 322.76C27.015 322.697 27.0326 322.636 27.0616 322.58C27.0906 322.525 27.1306 322.475 27.1791 322.435C27.2276 322.395 27.2836 322.365 27.3439 322.347C27.4042 322.329 27.4675 322.323 27.5301 322.33C32.2193 322.81 36.8429 323.795 41.3201 325.27C41.4372 325.315 41.5321 325.404 41.5844 325.518C41.6367 325.632 41.6424 325.762 41.6001 325.88C41.5623 325.972 41.4966 326.049 41.4121 326.101C41.3277 326.153 41.229 326.177 41.1301 326.17Z" fill="white"/>
<path d="M213.31 435.59C242.156 435.59 265.54 422.091 265.54 405.44C265.54 388.789 242.156 375.29 213.31 375.29C184.464 375.29 161.08 388.789 161.08 405.44C161.08 422.091 184.464 435.59 213.31 435.59Z" fill="#E6E6E6"/>
<path d="M290.09 438.5C318.936 438.5 342.32 425.001 342.32 408.35C342.32 391.699 318.936 378.2 290.09 378.2C261.244 378.2 237.86 391.699 237.86 408.35C237.86 425.001 261.244 438.5 290.09 438.5Z" fill="#E6E6E6"/>
<path d="M152.47 419.7C181.316 419.7 204.7 406.201 204.7 389.55C204.7 372.899 181.316 359.4 152.47 359.4C123.624 359.4 100.24 372.899 100.24 389.55C100.24 406.201 123.624 419.7 152.47 419.7Z" fill="#E6E6E6"/>
<path d="M83.58 389.94C112.426 389.94 135.81 376.441 135.81 359.79C135.81 343.139 112.426 329.64 83.58 329.64C54.7341 329.64 31.35 343.139 31.35 359.79C31.35 376.441 54.7341 389.94 83.58 389.94Z" fill="#E6E6E6"/>
<path d="M355.17 419.23C384.016 419.23 407.4 405.731 407.4 389.08C407.4 372.429 384.016 358.93 355.17 358.93C326.324 358.93 302.94 372.429 302.94 389.08C302.94 405.731 326.324 419.23 355.17 419.23Z" fill="#E6E6E6"/>
<path d="M416.06 381.63C444.906 381.63 468.29 368.131 468.29 351.48C468.29 334.829 444.906 321.33 416.06 321.33C387.214 321.33 363.83 334.829 363.83 351.48C363.83 368.131 387.214 381.63 416.06 381.63Z" fill="#E6E6E6"/>
<path d="M391.06 58.4C390.099 58.0439 389.085 57.8545 388.06 57.84C387.06 57.77 386.78 57.57 386.59 57.36C385.658 56.0257 384.3 55.0477 382.74 54.5862C381.179 54.1247 379.508 54.2071 378 54.82C377.577 53.505 376.674 52.3975 375.472 51.7175C374.269 51.0375 372.855 50.8349 371.51 51.15C371.62 48.15 367.75 44.87 364.28 44.15C360.81 43.43 358.05 43.73 356.15 45.92C354.15 41.92 346.15 40.83 341.84 42.92C339.35 44.13 337.25 45.37 336.22 47.65C335.54 49.0528 335.221 50.6028 335.29 52.16C333.61 50.68 330.29 50.28 328 51.16C325.58 52.1 325.39 53.92 325.27 55.78C323.837 55.3589 322.317 55.3313 320.87 55.7C319.34 56.15 318.46 57.35 318.67 58.31C317.47 58.25 314.59 59.22 314.92 60.5C315.25 61.78 318.57 61.78 319.8 61.74C320.955 61.6467 322.102 61.4662 323.23 61.2C323.804 61.4105 324.409 61.5253 325.02 61.54C327.11 61.54 328.02 60.62 328.33 59.85C329.33 61.99 332.98 63.63 335.55 64.29C340.38 65.53 347.22 64.77 350.19 61.16C350.541 61.8383 351.032 62.4347 351.63 62.91C352.906 63.9456 354.463 64.576 356.1 64.72C358.1 64.91 363.41 65.16 364.91 62.01C365.98 64.11 370.72 65.01 374.32 64.55C375.705 64.3362 377.052 63.9254 378.32 63.33C379.12 62.9119 379.894 62.4478 380.64 61.94C380.929 61.7368 381.268 61.6163 381.62 61.5916C381.973 61.5669 382.325 61.639 382.64 61.8C385.185 62.7047 387.965 62.7047 390.51 61.8C392.53 60.94 393 59.25 391.06 58.4Z" fill="#F0F0F0"/>
<path d="M449 76.72C448.388 76.4957 447.742 76.3774 447.09 76.37C446.48 76.32 446.28 76.2 446.16 76.07C445.573 75.2186 444.712 74.5944 443.72 74.3014C442.728 74.0084 441.666 74.0644 440.71 74.46C440.444 73.6258 439.873 72.9226 439.111 72.4907C438.349 72.0588 437.453 71.93 436.6 72.13C436.67 70.22 434.22 68.13 432.02 67.69C429.82 67.25 428.02 67.43 426.87 68.82C425.58 66.3 420.54 65.59 417.8 66.92C416.23 67.69 414.9 68.47 414.25 69.92C413.818 70.8091 413.615 71.7924 413.66 72.78C412.997 72.3113 412.232 72.0086 411.428 71.8972C410.624 71.7858 409.805 71.8691 409.04 72.14C407.5 72.74 407.39 73.89 407.31 75.07C406.397 74.8194 405.433 74.8194 404.52 75.07C403.52 75.35 403 76.07 403.13 76.72C402.37 76.72 400.55 77.3 400.76 78.11C400.97 78.92 403.07 78.92 403.85 78.89C404.581 78.8358 405.307 78.722 406.02 78.55C406.381 78.6856 406.764 78.7566 407.15 78.76C408.47 78.76 409.04 78.19 409.25 77.7C409.89 79.06 412.19 80.09 413.82 80.51C416.88 81.29 421.21 80.81 423.1 78.51C423.321 78.9405 423.631 79.319 424.01 79.62C424.822 80.2671 425.806 80.6633 426.84 80.76C428.1 80.88 431.47 81.04 432.42 79.04C433.1 80.37 436.1 80.98 438.42 80.65C439.307 80.5213 440.169 80.2618 440.98 79.88C441.488 79.6171 441.979 79.3232 442.45 79C442.631 78.8728 442.843 78.7981 443.064 78.784C443.284 78.7699 443.505 78.8169 443.7 78.92C445.318 79.4927 447.083 79.4927 448.7 78.92C449.88 78.33 450.14 77.27 449 76.72Z" fill="#F5F5F5"/>
<path d="M98.66 83.06C97.8078 82.7472 96.9078 82.5848 96 82.58C95.15 82.51 94.89 82.34 94.72 82.16C93.9053 81.0107 92.7252 80.1714 91.3722 79.7791C90.0191 79.3869 88.5731 79.4647 87.27 80C86.9022 78.8546 86.1168 77.8895 85.07 77.2966C84.0231 76.7037 82.7915 76.5264 81.62 76.8C81.72 74.17 78.35 71.34 75.33 70.7C72.31 70.06 69.91 70.34 68.26 72.25C66.49 68.79 59.55 67.82 55.8 69.65C53.64 70.7 51.8 71.78 50.91 73.75C50.3203 74.9768 50.042 76.3301 50.1 77.69C49.1927 77.0428 48.1426 76.624 47.0389 76.469C45.9352 76.3141 44.8105 76.4276 43.76 76.8C41.65 77.62 41.49 79.21 41.39 80.8C40.1381 80.4415 38.8141 80.4174 37.55 80.73C36.22 81.13 35.46 82.17 35.64 83.01C34.64 82.95 32.09 83.8 32.38 84.91C32.67 86.02 35.56 86 36.62 86C37.6307 85.9217 38.6338 85.7646 39.62 85.53C40.1159 85.7162 40.6404 85.8143 41.17 85.82C42.99 85.82 43.76 85.03 44.05 84.35C44.94 86.22 48.1 87.65 50.34 88.22C54.54 89.3 60.49 88.64 63.08 85.5C63.3849 86.0806 63.8072 86.5914 64.32 87C65.4364 87.8986 66.793 88.4482 68.22 88.58C69.94 88.74 74.58 88.96 75.88 86.22C76.81 88.04 80.94 88.87 84.07 88.43C85.2867 88.2412 86.4713 87.8845 87.59 87.37C88.41 86.97 88.88 86.59 89.59 86.16C89.8375 85.9763 90.1307 85.8642 90.4376 85.836C90.7445 85.8078 91.0532 85.8645 91.33 86C93.5459 86.7848 95.9641 86.7848 98.18 86C99.93 85.28 100.3 83.81 98.66 83.06Z" fill="#F0F0F0"/>
<path d="M192.12 53C190.823 52.52 189.453 52.2663 188.07 52.25C186.76 52.15 186.35 51.89 186.07 51.6C184.814 49.7923 182.979 48.4671 180.868 47.8434C178.757 47.2198 176.497 47.335 174.46 48.17C173.69 45.03 169.89 42.31 165.71 43.17C165.85 39.09 160.64 34.71 155.96 33.71C151.47 32.76 147.56 33.16 144.96 36.11C142.21 30.75 131.46 29.25 125.65 32.11C122.3 33.74 119.46 35.41 118.08 38.48C117.159 40.3733 116.726 42.4667 116.82 44.57C114.55 42.57 110.01 42.03 106.98 43.2C103.72 44.47 103.47 46.93 103.31 49.43C101.375 48.8666 99.3247 48.8286 97.3701 49.32C95.3101 49.93 94.1201 51.55 94.3701 52.85C92.7501 52.76 88.8701 54.08 89.3701 55.79C89.8701 57.72 94.2901 57.53 95.9501 57.47C97.5097 57.3447 99.0575 57.1007 100.58 56.74C101.349 57.0269 102.16 57.1824 102.98 57.2C105.8 57.2 106.98 55.97 107.45 54.92C108.83 57.82 113.72 60.02 117.18 60.92C123.7 62.59 132.92 61.57 136.94 56.7C137.427 57.6002 138.102 58.3848 138.92 59C140.636 60.3881 142.723 61.2402 144.92 61.45C147.6 61.7 154.78 62.04 156.8 57.79C158.24 60.62 164.63 61.9 169.5 61.21C171.401 60.9469 173.254 60.4079 175 59.61C176.079 59.0449 177.124 58.4172 178.13 57.73C178.517 57.4618 178.97 57.3035 179.44 57.2718C179.91 57.2401 180.38 57.3362 180.8 57.55C184.14 58.55 188.01 58.97 191.42 57.55C194.11 56.4 194.67 54.12 192.12 53Z" fill="#F5F5F5"/>
<path d="M227.25 99.48C227.262 105.496 229.057 111.373 232.409 116.368C235.76 121.364 240.518 125.253 246.08 127.545C251.641 129.837 257.758 130.429 263.656 129.245C269.554 128.061 274.969 125.155 279.215 120.895C283.462 116.634 286.35 111.21 287.515 105.308C288.679 99.4062 288.067 93.2915 285.757 87.7372C283.447 82.1829 279.542 77.4382 274.535 74.1031C269.529 70.768 263.646 68.9921 257.63 69C249.56 69.0159 241.827 72.2355 236.13 77.951C230.434 83.6665 227.239 91.4103 227.25 99.48ZM229.98 99.48C229.974 94.003 231.593 88.6473 234.631 84.0902C237.669 79.5331 241.99 75.9793 247.048 73.8783C252.106 71.7773 257.674 71.2235 263.046 72.287C268.419 73.3504 273.356 75.9832 277.232 79.8525C281.108 83.7219 283.75 88.6538 284.823 94.0247C285.896 99.3955 285.353 104.964 283.261 110.026C281.169 115.087 277.623 119.415 273.071 122.462C268.52 125.508 263.167 127.136 257.69 127.14C250.353 127.135 243.318 124.22 238.127 119.035C232.936 113.849 230.013 106.817 230 99.48H229.98Z" fill="#455A64"/>
<path d="M230 99.48C230.004 104.957 231.632 110.311 234.679 114.862C237.726 119.414 242.054 122.96 247.117 125.052C252.179 127.143 257.748 127.686 263.119 126.613C268.49 125.539 273.422 122.896 277.291 119.019C281.16 115.141 283.792 110.204 284.854 104.83C285.917 99.4567 285.361 93.8889 283.259 88.8311C281.156 83.7733 277.601 79.4527 273.043 76.4158C268.484 73.3788 263.127 71.7621 257.65 71.77C250.312 71.7885 243.281 74.7158 238.098 79.9102C232.915 85.1045 230.003 92.142 230 99.48Z" fill="white"/>
<path d="M259.35 138.25L263.23 128.19H252.15L256.05 138.24C256.178 138.573 256.404 138.86 256.698 139.062C256.992 139.264 257.34 139.373 257.697 139.374C258.053 139.375 258.402 139.269 258.697 139.068C258.992 138.867 259.22 138.582 259.35 138.25Z" fill="#455A64"/>
<path d="M257.67 116.94C237.28 106.08 235.67 94.43 241.56 88.73C246.87 83.63 256.56 86.99 257.67 94.29C258.75 86.99 268.46 83.63 273.77 88.73C279.69 94.43 278.05 106.08 257.67 116.94Z" fill="#BA68C8"/>
<path d="M71.0601 155.84C65.7301 154.71 58.0601 155.76 55.2501 167.45C52.7001 178.13 50.7001 186.18 49.8201 191.83C48.9401 197.48 49.4101 202.08 50.0101 207.72C50.3801 211.2 51.0101 214.64 51.5101 218.09C51.7968 219.85 52.0734 221.61 52.3401 223.37C52.6487 224.894 52.7995 226.445 52.7901 228C52.5501 231.55 52.3901 235.2 53.3301 238.67C53.5501 239.51 53.8301 240.32 54.1201 241.13L56.0001 246.44C56.3275 247.668 57.092 248.735 58.1501 249.44C59.0849 249.895 60.1102 250.135 61.1501 250.14C61.5044 250.23 61.8757 250.23 62.2301 250.14C62.4696 250.023 62.6863 249.863 62.8701 249.67C63.2857 249.348 63.6325 248.945 63.8901 248.487C64.1477 248.028 64.3109 247.523 64.3701 247C64.3701 246.37 64.0701 245.7 64.3701 245.13C64.4608 244.977 64.561 244.83 64.6701 244.69C64.8473 244.392 64.9633 244.062 65.0114 243.718C65.0594 243.375 65.0386 243.025 64.9501 242.69C64.789 242.034 64.5577 241.397 64.2601 240.79C63.0351 237.847 62.5047 234.661 62.7101 231.48C62.7101 231.18 62.9101 230.77 63.1901 230.87C63.2555 230.904 63.3126 230.953 63.3575 231.011C63.4024 231.07 63.434 231.138 63.4501 231.21C63.7891 232.13 64.05 233.076 64.2301 234.04C64.313 234.915 64.5679 235.764 64.9801 236.54C65.1976 236.923 65.5464 237.214 65.9619 237.359C66.3774 237.504 66.8315 237.494 67.2401 237.33L66.8801 232.86C66.8268 232.099 66.7334 231.341 66.6001 230.59C66.1566 228.838 65.5194 227.141 64.7001 225.53C63.9977 223.92 63.5393 222.215 63.3401 220.47C62.9684 216.498 62.8916 212.504 63.1101 208.52C63.1801 204.78 63.3101 201.04 63.5201 197.3L71.0001 171.22L71.0601 155.84Z" fill="#FFA8A7"/>
<path d="M72.05 155.12C66.8 154.05 64.57 154.42 61.31 156.75C58.5177 158.795 56.5548 161.777 55.78 165.15C56.72 169.97 60.16 180.15 66.78 182.83L72.05 155.12Z" fill="#37474F"/>
<path d="M82.7501 369.79C82.2653 371.788 82.0933 373.849 82.2401 375.9C82.7201 377.29 85.3101 378.73 86.5001 379.09C89.8601 380.09 90.2801 379.96 95.7201 380.66C97.199 380.809 98.6616 381.09 100.09 381.5C104.65 382.91 108.09 384.99 112.4 385.24C118.84 385.62 123.66 384.1 126.15 381.44C126.628 380.057 126.628 378.553 126.15 377.17C125.42 375.04 122.7 373.56 120.68 372.87C115.25 371.01 112.6 369.93 108.5 368.28C106.323 367.363 104.206 366.311 102.16 365.13C100.41 364.13 99.3101 362.52 97.2401 362.23C95.1701 361.94 93.0901 362.49 91.0601 362.8C89.0301 363.11 86.6301 363.54 84.4501 363.8C83.7401 363.88 84.2401 364.48 82.7501 369.79Z" fill="#455A64"/>
<path d="M83.5801 349.3C83.6701 351.86 84.3501 356.66 84.4401 359.21C84.5101 361.31 84.4401 363.44 84.3601 365.54C84.3195 366.025 84.3704 366.514 84.5101 366.98C84.8481 367.695 85.4194 368.273 86.1301 368.62C91.0601 371.62 94.6301 372.11 100.13 373.62C103.94 374.765 107.817 375.67 111.74 376.33C114.74 376.68 118.15 376.78 119.85 375.33C120.66 374.63 120.55 373.25 117.33 371.99C114.11 370.73 111.19 369.66 107.97 368.11C105.952 367.198 104.003 366.138 102.14 364.94C101.226 364.425 100.47 363.671 99.9501 362.76C99.5851 361.746 99.4551 360.662 99.5701 359.59C99.6801 358.21 99.8401 356.84 99.9901 355.46C100.26 353.12 100.51 350.77 100.79 348.46C100.82 348.38 83.5801 349.18 83.5801 349.3Z" fill="#FFA8A7"/>
<path d="M36.5801 329C37.1153 328.43 37.5911 327.807 38.0001 327.14C39.5901 323.72 41.3701 317.7 43.0901 311.8L58.7001 319.22C57.3201 321.667 55.9334 324.113 54.5401 326.56C53.8601 327.77 53.1901 328.99 52.4801 330.18C51.8035 331.187 51.1858 332.232 50.6301 333.31C50.054 334.505 49.6081 335.759 49.3001 337.05C48.9274 339.029 48.8767 341.055 49.1501 343.05C49.2663 344.558 49.5824 346.045 50.0901 347.47C50.6707 348.796 51.6004 349.94 52.7801 350.78C53.3301 351.22 53.7001 351.25 53.3001 352.18C53.1501 352.54 52.6701 352.6 52.3001 352.62C51.6925 352.652 51.0834 352.628 50.4801 352.55C49.23 352.322 48.0554 351.79 47.0601 351C46.125 350.322 45.3046 349.498 44.6301 348.56C42.9001 346.05 42.7601 342.81 42.8601 339.77C42.913 339.102 42.8828 338.43 42.7701 337.77C42.6595 337.345 42.5123 336.93 42.3301 336.53C41.1001 333.58 38.5601 331.46 36.5801 329Z" fill="#FFA8A7"/>
<path d="M30.7201 335.55C30.498 334.754 30.5617 333.904 30.9001 333.15C31.6001 331.71 32.5601 331.36 33.6301 330.62C34.2001 330.23 34.7101 329.76 35.2701 329.35C35.7103 328.906 36.2081 328.522 36.7501 328.21C37.186 328.07 37.6495 328.039 38.1001 328.12C40.153 328.309 42.0714 329.223 43.5101 330.7C44.8301 332.34 44.9901 334.41 45.0201 336.44L45.1101 341.64C45.0249 343.694 45.2921 345.747 45.9001 347.71C46.2413 348.824 46.8811 349.824 47.7501 350.6C48.6056 351.401 49.7034 351.893 50.8701 352C51.2744 352.066 51.689 351.985 52.0391 351.772C52.3893 351.56 52.652 351.229 52.7801 350.84C52.7801 350.84 53.6001 351.13 53.8901 351.25C54.5621 351.511 55.2028 351.846 55.8001 352.25C56.5954 352.837 57.1895 353.656 57.5011 354.594C57.8126 355.532 57.8262 356.544 57.5401 357.49C57.1701 358.49 52.9201 361.39 45.1301 360.49C44.3501 360.23 41.4501 359.21 40.6801 358.84C38.5001 357.77 35.3901 356.96 34.8801 354.19C34.785 353.406 34.785 352.614 34.8801 351.83C35.1909 349.013 34.9636 346.162 34.2101 343.43C33.5306 341.668 32.739 339.951 31.8401 338.29C31.3686 337.42 30.993 336.501 30.7201 335.55Z" fill="#455A64"/>
<path d="M30.9001 333.15C29.7901 334.21 30.7201 336.63 32.1601 340.37C32.8001 342 34.7701 345 34.3901 348C34.0101 351 33.9601 353.87 34.7201 355.29C35.9201 357.52 41.3101 359.55 45.1301 360.47C42.8427 357.199 41.5287 353.347 41.3401 349.36C41.0201 342.69 40.5501 338.36 37.5301 335.36C33.7101 331.64 30.9001 333.15 30.9001 333.15Z" fill="black"/>
<path d="M54.3301 327.46C54.3301 327.46 62.1701 314.12 73.9201 293.88C75.7317 291.043 76.9967 287.892 77.6501 284.59C78.4601 281.21 79.0701 278.73 79.0701 278.73L81.0001 302C80.1255 305.61 79.5799 309.292 79.3701 313C79.3341 319.963 79.7852 326.92 80.7201 333.82C82.5801 348.26 83.5201 356 83.5201 356C84.5201 356.74 86.0201 357.92 93.1401 357.89C95.6741 357.741 98.1511 357.078 100.42 355.94C100.42 355.94 102.25 340.94 103.11 330.47C104.35 315.55 104.93 310.39 105.4 304.56C106.27 293.61 107.55 288.4 107.82 271.14C108.1 253.24 106.98 226.89 106.98 226.89L58.6101 211.78C58.6101 211.78 53.1301 220.91 55.9201 237.55C55.3801 252.55 54.5701 280.61 54.5701 280.61C52.0501 284.1 49.2801 289.35 46.8501 297.91C44.1401 307.43 42.5001 312.91 40.3601 319.91C44.4501 319.84 52.8601 324.58 54.3301 327.46Z" fill="#37474F"/>
<path d="M77.81 262.11C77.42 263.82 77.03 265.45 76.66 267.01C74.03 278.01 71.76 286.01 68.88 291.57C65.41 298.27 54.62 316.49 50.29 323.75C50.55 323.92 50.79 324.08 51.02 324.25C55.33 317 66.17 298.72 69.67 292C72.41 286.73 74.58 279.34 77.01 269.31C77.35 267.93 77.69 266.51 78.01 265.04L77.81 262.11Z" fill="#263238"/>
<path d="M101.11 226.85H102C102.47 234.48 102.67 243.99 102.65 254.66C104.46 253.82 106.39 252.01 107.65 248.32C107.65 249.04 107.65 249.76 107.65 250.49C106.673 252.778 104.865 254.611 102.59 255.62C102.5 285.94 98.66 325.31 96.28 357.45L95.38 357.65C98.69 313.75 102.93 256.22 101.11 226.85Z" fill="#263238"/>
<path opacity="0.2" d="M79.07 278.73L76.63 246.73C72.0462 244.789 68.1952 241.446 65.63 237.18C65.63 237.18 65.83 244.18 73.63 247.59L78.33 278.08L78.07 282.78C78.07 282.78 79 279.1 79.07 278.73Z" fill="black"/>
<path d="M81.6201 114.09C82.4973 113.226 83.5109 112.514 84.6201 111.98C85.4862 111.591 86.3913 111.296 87.3201 111.1C90.1633 110.342 93.1415 110.239 96.0301 110.8C98.9406 111.38 101.506 113.083 103.17 115.54C103.624 116.428 104.174 117.263 104.81 118.03C106.07 119.3 107.99 119.54 109.67 120.15C111.14 120.645 112.428 121.568 113.37 122.8C113.829 123.42 114.139 124.139 114.274 124.898C114.409 125.658 114.367 126.439 114.15 127.18C113.726 128.139 113.207 129.054 112.6 129.91C112.302 130.343 112.108 130.839 112.032 131.359C111.955 131.879 111.999 132.41 112.16 132.91C112.59 133.91 114.07 134.32 114.71 133.49C114.209 134.089 113.574 134.561 112.857 134.871C112.139 135.18 111.36 135.316 110.58 135.27C110.929 135.821 111.152 136.443 111.234 137.09C111.315 137.738 111.253 138.395 111.052 139.016C110.85 139.636 110.514 140.205 110.068 140.681C109.622 141.157 109.076 141.529 108.47 141.77C108.297 141.817 108.136 141.902 108 142.02C107.818 142.29 107.74 142.617 107.78 142.94C107.68 146.64 103.44 147.67 100.62 148.66C97.8001 149.65 94.2101 150.71 92.3201 153.07C91.9764 153.575 91.5329 154.004 91.0169 154.331C90.5009 154.657 89.9235 154.875 89.3201 154.97C87.7736 155.271 86.1861 155.298 84.6301 155.05C83.377 154.916 82.1542 154.578 81.0101 154.05C79.8001 153.46 79.3501 152.55 78.4401 151.7C77.7001 151.01 75.6801 151.31 74.7501 151C71.1401 149.81 69.4901 146.19 69.4401 142.38C69.1073 143.067 68.9344 143.821 68.9344 144.585C68.9344 145.349 69.1073 146.103 69.4401 146.79C68.5832 146.005 67.9351 145.019 67.5546 143.921C67.174 142.823 67.0728 141.647 67.2601 140.5C67.5401 138.94 68.3501 137.5 68.7801 136.01C70.0101 131.62 68.0101 126.56 70.1401 122.53C71.011 121.093 72.1836 119.862 73.577 118.923C74.9704 117.983 76.5512 117.358 78.2101 117.09C79.5401 116.86 80.1401 115.54 81.0501 114.6C81.2501 114.44 81.4301 114.27 81.6201 114.09Z" fill="#263238"/>
<path d="M75.0001 157.83C75.0001 157.83 76.3701 148.83 76.3501 148.68C75.9601 145.56 71.3501 139.16 71.3501 131.92C71.3501 124.68 79.4301 115.58 90.2901 116.26C98.6901 116.78 102.92 121.26 104.76 127.71C105.88 131.61 104.82 133.26 105.2 135.49C105.96 139.87 107.2 144.19 104.2 150.73C103.608 151.953 102.739 153.021 101.663 153.85C100.587 154.68 99.3332 155.248 98.0001 155.51C96.192 155.738 94.3592 155.677 92.5701 155.33L91.8601 162.66L75.0001 157.83Z" fill="#FFA8A7"/>
<path d="M98.9101 146.17C98.8103 146.446 98.6571 146.699 98.4594 146.916C98.2616 147.132 98.0232 147.308 97.7576 147.432C97.492 147.557 97.2045 147.628 96.9116 147.641C96.6186 147.654 96.3259 147.61 96.0501 147.51C95.7743 147.41 95.5209 147.257 95.3043 147.059C95.0877 146.862 94.9122 146.623 94.7878 146.358C94.6633 146.092 94.5924 145.804 94.5791 145.512C94.5658 145.219 94.6103 144.926 94.7101 144.65L98.9101 146.17Z" fill="#B16668"/>
<path d="M97.1401 147.61C96.9655 147.038 96.6325 146.526 96.1794 146.135C95.7264 145.744 95.1719 145.489 94.5801 145.4C94.5788 145.86 94.7191 146.309 94.9821 146.687C95.2451 147.064 95.618 147.352 96.0501 147.51C96.3997 147.632 96.774 147.667 97.1401 147.61Z" fill="#F28F8F"/>
<path d="M95.0001 136.53C95.0592 136.787 95.041 137.056 94.9479 137.303C94.8547 137.55 94.6906 137.764 94.4762 137.918C94.2619 138.072 94.0068 138.16 93.743 138.169C93.4792 138.179 93.2184 138.11 92.9934 137.972C92.7684 137.834 92.5892 137.633 92.4782 137.393C92.3673 137.154 92.3295 136.887 92.3698 136.626C92.41 136.365 92.5264 136.122 92.7044 135.927C92.8823 135.732 93.1139 135.594 93.3701 135.53C93.7185 135.451 94.0839 135.512 94.3884 135.699C94.6929 135.885 94.9124 136.184 95.0001 136.53Z" fill="#263238"/>
<path d="M94.2001 132.4L91.5201 134.28C91.2754 133.911 91.1825 133.462 91.2607 133.026C91.3389 132.59 91.5823 132.201 91.9401 131.94C92.1173 131.818 92.3174 131.732 92.5284 131.689C92.7394 131.646 92.9569 131.646 93.168 131.689C93.379 131.732 93.5792 131.817 93.7565 131.939C93.9339 132.061 94.0847 132.218 94.2001 132.4Z" fill="#263238"/>
<path d="M105 133L101.83 132.08C101.879 131.869 101.972 131.671 102.101 131.498C102.23 131.324 102.393 131.179 102.581 131.071C102.768 130.963 102.976 130.895 103.191 130.871C103.406 130.847 103.623 130.867 103.83 130.93C104.253 131.06 104.609 131.347 104.827 131.732C105.045 132.117 105.107 132.571 105 133Z" fill="#263238"/>
<path d="M104.46 136.1C104.457 136.267 104.419 136.431 104.35 136.583C104.281 136.735 104.182 136.872 104.058 136.984C103.935 137.097 103.79 137.183 103.632 137.237C103.474 137.292 103.307 137.313 103.14 137.301C102.974 137.289 102.811 137.243 102.663 137.166C102.515 137.089 102.384 136.983 102.278 136.853C102.173 136.724 102.094 136.575 102.048 136.414C102.002 136.254 101.989 136.086 102.01 135.92C102.018 135.756 102.058 135.596 102.128 135.447C102.198 135.299 102.297 135.166 102.419 135.057C102.541 134.947 102.683 134.862 102.838 134.808C102.992 134.754 103.156 134.731 103.32 134.74C103.651 134.771 103.957 134.931 104.17 135.185C104.384 135.44 104.488 135.769 104.46 136.1Z" fill="#263238"/>
<path d="M105.04 141.78L100.67 143.47L98.9901 134.66L105.04 141.78Z" fill="#F28F8F"/>
<path d="M92.5601 155.33C90.797 154.78 89.0814 154.087 87.4301 153.26C84.5432 151.353 82.3397 148.575 81.1401 145.33C81.1401 147.65 83.0801 151.55 85.9101 154.18C88.0101 156.13 92.3801 157.18 92.3801 157.18L92.5601 155.33Z" fill="#F28F8F"/>
<path d="M80.5701 143.05C80.3457 144.749 79.6532 146.352 78.5701 147.68C77.7421 148.732 76.7959 149.685 75.7501 150.52C73.9501 146.52 73.5201 143.78 72.6001 141.3C71.4946 138.206 70.9757 134.934 71.0701 131.65C71.2663 128.692 72.3076 125.853 74.0701 123.47C75.6573 121.256 77.7039 119.41 80.0701 118.06C81.3237 117.334 82.669 116.779 84.0701 116.41C87.1243 115.76 90.2694 115.655 93.3601 116.1C98.0301 116.91 103.36 121.26 104.22 126.1C103.56 124.85 102.39 123.75 100.97 124.36C99.3801 125.03 98.1001 126.3 96.4401 126.82C94.2401 127.51 90.1001 126.75 88.1301 125.57C88.6001 127.12 89.1301 129.03 88.5701 130.57C88.099 131.992 87.2147 133.242 86.0301 134.16C85.5568 134.409 85.1985 134.832 85.0301 135.34C84.9598 135.96 84.836 136.572 84.6601 137.17C84.5048 137.618 84.236 138.017 83.8801 138.33C83.705 138.487 83.4925 138.596 83.263 138.646C83.0336 138.697 82.795 138.688 82.5701 138.62C82.3967 138.572 82.2471 138.462 82.1501 138.31C82.0955 138.183 82.065 138.048 82.0601 137.91C82.0601 137.47 82.0601 137.04 82.0601 136.6C82.0341 135.995 81.8478 135.409 81.5201 134.9C81.2221 134.487 80.8409 134.141 80.401 133.885C79.961 133.629 79.4723 133.468 78.9662 133.412C78.4601 133.357 77.948 133.408 77.4629 133.562C76.9778 133.717 76.5306 133.972 76.1501 134.31C74.5701 136 74.0001 138 75.4901 141.08C76.4801 143.19 78.8901 144.46 80.5701 143.05Z" fill="#263238"/>
<path d="M60.1201 167.42C60.9001 162.72 63.8401 157.84 66.7901 156.21C69.9001 154.51 72.0401 154.6 82.7101 157.36C89.8101 159.19 99.8101 162.6 99.8101 162.6C102.61 164.07 104.81 166.31 110.11 176.11C114.4 184.02 113.41 192.48 106.87 196C107 201.54 105.87 204.79 106.11 207.57C107.17 219.31 107.5 230.65 107.5 230.65C107.5 230.65 91.0001 236.26 75.7801 231.78C61.0001 227.44 56.9301 221.71 55.3401 219.41C55.3401 219.41 56.4101 215.6 58.5201 209.6C60.7901 203.16 62.2001 198.89 61.5201 193.5C60.2401 183.83 58.8501 175.12 60.1201 167.42Z" fill="#F0F0F0"/>
<path d="M154.29 386.88C154.94 386.88 154.77 388.77 154.5 389.58C154.23 390.39 151.5 393.03 146.73 393.77C141.96 394.51 135.56 393.32 132.78 393.07C130 392.82 125.71 393.95 122.94 394.39C116.5 395.39 113.05 392.92 111.48 391.27C111.226 390.944 111.044 390.568 110.946 390.166C110.848 389.764 110.835 389.347 110.91 388.94C111.06 387.11 111.25 386.74 111.46 386.77L154.29 386.88Z" fill="#37474F"/>
<path d="M112.6 380.91C112.13 382.14 111.729 383.395 111.4 384.67C111 386.21 110.6 388.19 111.59 389.48C113.26 391.65 115.42 392.32 117.71 392.69C120.44 393.106 123.227 392.943 125.89 392.21C128.36 391.55 130.34 390.95 132.95 391.21C135.81 391.52 139.73 392.21 142.61 392.06C145.051 392.051 147.475 391.653 149.79 390.88C151.649 390.188 153.225 388.897 154.27 387.21C154.45 385.898 154.226 384.563 153.627 383.382C153.029 382.201 152.084 381.23 150.92 380.6C148.733 379.388 146.271 378.758 143.77 378.77C141.06 378.67 139 378.94 136.6 378.67C134.946 378.553 133.334 378.09 131.87 377.31C131.199 376.723 130.709 375.956 130.46 375.1C130.11 374.23 130 373.47 129.23 373.36C129.23 373.36 116.56 372.74 115.41 372.75C114.09 372.75 114.17 374.55 114.07 375.49C113.97 376.43 113.95 376.32 113.86 377.14C113.695 378.05 113.42 378.937 113.04 379.78C112.89 380.16 112.74 380.53 112.6 380.91Z" fill="#455A64"/>
<path d="M138.72 378.3C138.906 378.198 139.11 378.134 139.32 378.11C140.43 377.99 141.22 379.11 141.65 379.98C141.89 380.513 142.062 381.074 142.16 381.65C142.346 382.358 142.325 383.104 142.1 383.8C142.04 383.97 141.89 384.17 141.71 384.12C141.53 384.07 141.52 383.86 141.51 383.69C141.453 382.683 141.216 381.694 140.81 380.77C140.668 380.371 140.454 380.002 140.18 379.68C139.881 379.362 139.516 379.113 139.11 378.95C138.95 378.88 138.21 378.85 138.4 378.53C138.444 378.473 138.498 378.426 138.56 378.39L138.72 378.3Z" fill="#FAFAFA"/>
<path d="M135.54 378.16C136.063 378.136 136.576 378.307 136.98 378.64C137.384 379.05 137.662 379.567 137.78 380.13C138.14 381.21 138.39 382.81 137.7 383.83C137.48 384.15 137.2 383.97 137.09 383.66C137.023 383.281 136.996 382.895 137.01 382.51C136.92 381.664 136.729 380.831 136.44 380.03C136.339 379.71 136.198 379.405 136.02 379.12C135.898 378.935 135.742 378.776 135.56 378.65C135.469 378.585 135.368 378.538 135.26 378.51C135.161 378.484 135.061 378.464 134.96 378.45C134.96 378.3 135.15 378.22 135.3 378.19L135.54 378.16Z" fill="#FAFAFA"/>
<path d="M132.37 377.11C132.732 377.241 133.047 377.474 133.28 377.78C133.475 378.084 133.608 378.424 133.67 378.78C133.879 379.573 133.99 380.39 134 381.21C134.002 381.792 133.836 382.361 133.52 382.85C133.39 383.04 133.15 383.22 132.95 383.11C132.75 383 132.77 382.64 132.76 382.43C132.757 382.039 132.773 381.649 132.81 381.26C132.849 379.841 132.451 378.445 131.67 377.26C131.646 377.233 131.629 377.201 131.618 377.167C131.608 377.132 131.605 377.096 131.61 377.06C131.61 376.96 131.79 376.96 131.89 376.98C132.053 377.013 132.213 377.056 132.37 377.11Z" fill="#FAFAFA"/>
<path d="M142.09 378.76C143.21 378.76 145.49 380.43 146.48 383.92C147.049 386.481 147.096 389.13 146.62 391.71C148.968 391.526 151.196 390.598 152.98 389.06C153.644 388.539 154.204 387.898 154.63 387.17C154.842 386.27 154.87 385.337 154.712 384.426C154.554 383.515 154.213 382.646 153.71 381.87C152.17 379.87 149.71 378.45 145.71 378.06C141.28 377.61 140.84 378.78 140.84 378.78L142.09 378.76Z" fill="#FAFAFA"/>
<path d="M113.06 353L115.06 374C114.97 375.54 117.48 377.11 122.21 377.4C125.52 377.6 128.57 376.68 129.13 375.04C129.69 373.4 132.35 353.62 132.35 353.62L113.06 353Z" fill="#B16668"/>
<path d="M191.21 398.81C191.86 398.81 191.72 400.69 191.46 401.51C191.2 402.33 188.46 404.99 183.74 405.8C179.02 406.61 172.56 405.49 169.74 405.28C166.92 405.07 162.67 406.28 159.91 406.72C153.49 407.81 150 405.38 148.41 403.72C148.152 403.397 147.966 403.024 147.862 402.624C147.759 402.224 147.741 401.807 147.81 401.4C147.94 399.56 148.12 399.2 148.33 399.22L191.21 398.81Z" fill="#37474F"/>
<path d="M149.45 393.38C148.997 394.619 148.61 395.881 148.29 397.16C147.92 398.7 147.54 400.68 148.55 401.96C150.25 404.11 152.42 404.75 154.71 405.09C157.448 405.475 160.236 405.274 162.89 404.5C165.35 403.81 167.32 403.18 169.89 403.43C172.75 403.69 176.68 404.34 179.56 404.15C181.999 404.107 184.415 403.678 186.72 402.88C188.572 402.167 190.132 400.853 191.15 399.15C191.317 397.836 191.078 396.502 190.465 395.327C189.852 394.153 188.894 393.194 187.72 392.58C185.519 391.395 183.049 390.799 180.55 390.85C177.84 390.78 175.78 391.08 173.38 390.85C171.723 390.762 170.104 390.323 168.63 389.56C167.955 388.978 167.457 388.22 167.19 387.37C166.83 386.51 166.71 385.74 165.94 385.64C165.94 385.64 153.26 385.19 152.11 385.21C150.79 385.21 150.9 387.03 150.81 387.97C150.72 388.91 150.7 388.8 150.62 389.62C150.47 390.532 150.208 391.422 149.84 392.27C149.73 392.62 149.58 393 149.45 393.38Z" fill="#455A64"/>
<path d="M165.55 387.88C165.55 389.28 162.65 390.88 159.03 390.88C155.41 390.88 152.49 389.55 152.47 387.98C152.457 386.246 153.133 384.577 154.35 383.341C155.567 382.105 157.226 381.403 158.96 381.39C160.695 381.377 162.363 382.053 163.599 383.27C164.835 384.487 165.537 386.146 165.55 387.88Z" fill="#37474F"/>
<path d="M160.26 383C160.26 383.75 157.69 383.77 157.69 383L157.56 368H160.13L160.26 383Z" fill="#E0E0E0"/>
<path d="M175.53 390.43C175.717 390.329 175.92 390.262 176.13 390.23C177.24 390.1 178.04 391.23 178.49 392.07C178.734 392.602 178.908 393.164 179.01 393.74C179.21 394.439 179.21 395.181 179.01 395.88C178.94 396.06 178.8 396.26 178.62 396.21C178.44 396.16 178.42 395.96 178.41 395.79C178.34 394.78 178.09 393.791 177.67 392.87C177.524 392.474 177.307 392.108 177.03 391.79C176.724 391.478 176.356 391.232 175.95 391.07C175.79 391.01 175.05 390.98 175.24 390.67C175.274 390.609 175.327 390.56 175.39 390.53L175.53 390.43Z" fill="#FAFAFA"/>
<path d="M172.35 390.33C172.873 390.301 173.389 390.464 173.8 390.79C174.207 391.196 174.491 391.709 174.62 392.27C174.99 393.35 175.26 394.94 174.62 395.97C174.41 396.3 174.12 396.12 174.01 395.81C173.94 395.431 173.909 395.045 173.92 394.66C173.816 393.815 173.612 392.986 173.31 392.19C173.211 391.872 173.07 391.57 172.89 391.29C172.764 391.102 172.601 390.942 172.41 390.82C172.321 390.76 172.223 390.712 172.12 390.68C172.02 390.68 171.91 390.68 171.82 390.63C171.73 390.58 172 390.39 172.15 390.36L172.35 390.33Z" fill="#FAFAFA"/>
<path d="M169.17 389.32C169.53 389.448 169.846 389.678 170.08 389.98C170.287 390.28 170.427 390.621 170.49 390.98C170.704 391.773 170.825 392.589 170.85 393.41C170.856 393.993 170.697 394.565 170.39 395.06C170.26 395.25 170.03 395.43 169.83 395.33C169.63 395.23 169.64 394.86 169.62 394.65C169.62 394.26 169.62 393.86 169.62 393.48C169.645 392.056 169.23 390.659 168.43 389.48C168.43 389.42 168.34 389.35 168.37 389.29C168.4 389.23 168.54 389.18 168.65 389.2C168.827 389.224 169.001 389.264 169.17 389.32Z" fill="#FAFAFA"/>
<path d="M178.91 390.85C180.02 390.85 182.33 392.47 183.36 395.95C183.965 398.504 184.05 401.153 183.61 403.74C185.952 403.521 188.165 402.566 189.93 401.01C190.586 400.478 191.136 399.827 191.55 399.09C191.749 398.186 191.763 397.252 191.592 396.343C191.42 395.433 191.065 394.569 190.55 393.8C188.99 391.8 186.55 390.44 182.55 390.1C178.11 389.71 177.69 390.88 177.69 390.88L178.91 390.85Z" fill="#FAFAFA"/>
<path d="M112.18 322.71C112.653 318.412 113.598 314.18 115 310.09C115 310.09 114.88 270.18 115.19 259.09C115.452 251.911 116.311 244.766 117.76 237.73L173.24 238.8C173.24 238.8 173.54 270.94 173.12 292.29C172.71 313.29 170.61 319.42 169.02 342.68C168.43 351.31 166.76 368.06 166.76 368.06C166.76 368.06 163.28 370.48 156.76 370C153.96 369.8 149.54 368.54 148.48 367.69C148.48 367.69 145.32 353.74 144.63 344.64C144.35 341 143.79 332.24 144.75 327.21L140.75 299.62C140.75 299.62 139.82 312.46 138.75 322.47C137.68 332.48 130.75 365.83 130.75 365.83C130.75 365.83 128.19 367.83 121.75 367.47C117.58 367.22 115.1 365.77 114.12 364.83C114.12 364.83 113.45 358.4 112.65 348.03C111.68 337.18 111.61 328.67 112.18 322.71Z" fill="#455A64"/>
<path d="M147.05 363.16L148.3 369.52C148.3 369.52 151.97 372.28 158.88 371.83C165.79 371.38 167.17 368.76 167.17 368.76L167.53 362.38C167.53 362.38 164.43 364.58 158.24 364.84C150.82 365.16 147.05 363.16 147.05 363.16Z" fill="#37474F"/>
<path d="M140.71 299.61L138.02 267.61C138.02 267.61 131.7 266.7 123.54 259.12C123.54 259.12 123.94 264.86 134.92 270.07L138.16 298.41L139.49 314.66C140.26 308.8 140.47 304.34 140.71 299.61Z" fill="#37474F"/>
<path d="M113.17 358.81L113.72 365.31C113.72 365.31 116.25 368.13 123.18 368.1C130.11 368.07 131.09 365.86 131.09 365.86L132.39 359.2C132.39 359.2 129.16 361.2 122.97 361.09C115.55 360.94 113.17 358.81 113.17 358.81Z" fill="#37474F"/>
<path d="M60.3501 184.82C60.5201 183.82 61.5201 183.69 62.3501 183.7C64.0138 183.867 65.5785 184.569 66.8101 185.7C68.2042 186.753 69.5396 187.881 70.8101 189.08C71.9872 190.266 73.4206 191.165 75.0001 191.71C76.0001 192.13 77.3801 192.14 76.8701 190.71C76.2701 189 74.8701 187.13 75.3501 185.17C75.6701 183.82 76.7201 183.83 77.5401 184.7C78.8729 186.141 80.3137 187.478 81.8501 188.7C83.4101 189.94 83.0501 189.34 84.5701 190.62C85.3649 191.306 86.1101 192.048 86.8001 192.84C88.8001 195.01 91.6601 195.7 94.3201 196.14C96.1401 196.45 104.22 197.65 104.22 197.65C104.22 197.65 114.52 175.57 117.91 169.89C121.46 163.89 125.91 162.56 132.85 163.65L128.85 188.32C128.85 188.32 121.02 203.17 117.08 208.32C113.14 213.47 113.61 215.03 104.08 212.88C98.8001 211.69 89.5201 207.7 84.4101 205.88C82.0501 205.05 79.7401 204.44 77.3101 203.77C74.8801 203.1 72.5001 201.77 70.0801 200.7C68.9351 200.161 67.9521 199.33 67.2301 198.29C66.7601 197.62 66.7701 196.78 66.3301 196.15C65.8901 195.52 65.0601 195.31 64.7201 194.46C64.3801 193.61 64.7201 192.46 64.3101 191.66C63.8022 190.828 63.3447 189.967 62.9401 189.08C62.7791 188.286 62.4369 187.54 61.9401 186.9C61.3801 186.35 60.1901 185.75 60.3501 184.82Z" fill="#B16668"/>
<path d="M134 163C127.31 162.3 122.77 162.35 119 167.13C115.23 171.91 107.56 188.93 107.56 188.93C107.56 188.93 108.38 192.24 113.07 195.4C115.808 197.277 119.072 198.233 122.39 198.13L132.32 176.6L134 163Z" fill="#F0F0F0"/>
<path d="M169.6 174.54C166.12 172.54 158.26 169.33 151.02 167.12C146.096 165.524 141.08 164.225 136 163.23C130.77 162.23 127.11 163.23 123.6 166.79C120.83 169.59 118.37 176.25 118.02 183.79C117.59 192.98 119.21 204.35 119.38 212.08C119.55 219.81 116.45 241.89 116.45 241.89C126.45 253.33 156.86 256.73 173.57 250.4C173.57 250.4 173.72 232.27 173.2 224.75C172.5 214.57 172.85 193.06 172.32 188.04C171.847 183.463 170.936 178.943 169.6 174.54Z" fill="#37474F"/>
<path d="M155.59 160.49L154 168.57C147.63 171.49 138.58 167.78 137.79 165.2L139.15 156.93L155.59 160.49Z" fill="#B16668"/>
<path d="M171 140.82L174.09 149.38L170.34 150.79C170.09 146.91 169.24 142 171 140.82Z" fill="#9A4A4D"/>
<path d="M166.72 128.36C174.19 130.47 170.58 141.71 170.72 146.48C171.01 158.97 166.72 163.35 164.89 164.62C161.04 165.82 157.43 165.45 152.89 163.26C149.4 161.6 140.62 157.04 137.83 150.52C134.55 142.83 135.34 132.27 140.97 129.36C148.89 125.27 163.82 127.54 166.72 128.36Z" fill="#B16668"/>
<path d="M168.84 155.85H168.64H168.54L168.16 155.71C167.93 155.616 167.712 155.495 167.51 155.35C167.264 155.173 167.03 154.979 166.81 154.77C166.7 154.67 166.6 154.55 166.49 154.46C166.38 154.37 166.29 154.28 166.18 154.31C166.07 154.34 166.12 154.4 166.1 154.4C166.115 154.609 166.149 154.817 166.2 155.02L166.25 155.11L166.38 155.29C166.462 155.394 166.552 155.491 166.65 155.58C166.851 155.784 167.076 155.962 167.32 156.11C167.799 156.413 168.332 156.621 168.89 156.72C168.941 156.732 168.994 156.733 169.045 156.721C169.096 156.71 169.144 156.687 169.184 156.654C169.225 156.621 169.257 156.579 169.279 156.532C169.301 156.484 169.312 156.432 169.31 156.38C169.311 156.249 169.263 156.123 169.177 156.025C169.09 155.927 168.97 155.865 168.84 155.85Z" fill="#9A4A4D"/>
<path d="M164.93 164.62C163.93 165.33 157.71 165.7 154.72 164.78L155.16 162.47C155.79 163.2 161.3 165.31 164.93 164.62Z" fill="#9A4A4D"/>
<path d="M166.82 138.74C165.881 138.574 164.971 138.27 164.12 137.84C164.35 137.94 164.01 139.17 163.95 139.34C163.733 139.885 163.39 140.372 162.95 140.76C162.552 141.151 162.057 141.43 161.516 141.567C160.974 141.704 160.407 141.695 159.87 141.54C160.043 142.436 160.127 143.347 160.12 144.26C160.172 144.812 160.011 145.363 159.67 145.8C159.505 145.967 159.296 146.082 159.067 146.131C158.838 146.181 158.599 146.163 158.38 146.08C157.52 145.73 157.65 144.59 157.28 143.88C156.888 143.145 156.276 142.551 155.53 142.18C154.807 141.777 153.968 141.633 153.152 141.771C152.335 141.909 151.59 142.322 151.04 142.94C150.268 143.93 149.754 145.096 149.544 146.333C149.335 147.571 149.437 148.841 149.84 150.03C151.84 154.56 154.78 152.7 154.78 152.7C154.762 154.154 154.438 155.589 153.83 156.91C153.382 158.04 152.592 159.002 151.57 159.66C145.07 160 140.57 158.6 138.14 156.16C136.67 152.72 134.44 148.82 133.87 145.16C133.288 142.029 133.063 138.842 133.2 135.66C133.341 132.463 134.412 129.377 136.28 126.78C137.08 125.705 138.085 124.798 139.237 124.111C140.388 123.425 141.663 122.973 142.99 122.78C143.23 122.78 143.78 121.48 143.99 121.22C144.366 120.667 144.817 120.169 145.33 119.74C146.672 118.588 148.382 117.955 150.15 117.955C151.918 117.955 153.628 118.588 154.97 119.74C155.873 118.926 156.953 118.335 158.125 118.014C159.296 117.692 160.527 117.649 161.718 117.888C162.91 118.127 164.029 118.642 164.986 119.391C165.943 120.139 166.711 121.101 167.23 122.2C168.141 121.662 169.196 121.421 170.25 121.511C171.304 121.601 172.303 122.016 173.11 122.7C174.85 124.17 175.2 126.27 175.04 128.41C176.71 128.68 177.2 130.94 176.94 132.41C176.687 133.548 176.17 134.61 175.43 135.51C174.937 136.069 174.527 136.695 174.21 137.37C174.06 137.712 174.009 138.088 174.062 138.458C174.115 138.827 174.27 139.174 174.51 139.46C173.651 139.73 172.726 139.709 171.88 139.4C171.033 139.091 170.313 138.511 169.83 137.75C169.482 138.129 169.047 138.417 168.563 138.591C168.079 138.765 167.56 138.82 167.05 138.75L166.82 138.74Z" fill="#263238"/>
<path d="M415.26 332.59C414.63 332.59 414.73 334.41 414.97 335.21C415.21 336.01 417.81 338.66 422.4 339.54C426.99 340.42 433.29 339.47 436 339.32C438.71 339.17 442.85 340.41 445.54 340.92C451.77 342.11 455.21 339.81 456.79 338.26C457.048 337.95 457.237 337.59 457.345 337.202C457.454 336.815 457.479 336.408 457.42 336.01C457.34 334.22 457.17 333.86 456.96 333.88L415.26 332.59Z" fill="#37474F"/>
<path d="M456 328.14C456.404 329.353 456.738 330.588 457 331.84C457.33 333.35 457.66 335.29 456.65 336.51C455.89 337.382 454.961 338.09 453.92 338.592C452.878 339.094 451.745 339.379 450.59 339.43C447.918 339.758 445.207 339.509 442.64 338.7C440.26 337.98 438.35 337.33 435.81 337.51C433.01 337.71 429.17 338.27 426.38 338.02C423.988 337.937 421.625 337.471 419.38 336.64C417.59 335.906 416.095 334.597 415.13 332.92C414.995 331.636 415.257 330.341 415.879 329.21C416.501 328.078 417.454 327.164 418.61 326.59C420.774 325.489 423.184 324.959 425.61 325.05C428.26 325.05 430.26 325.37 432.61 325.18C434.273 325.137 435.907 324.734 437.4 324C438.071 323.45 438.573 322.722 438.85 321.9C439.22 321.07 439.34 320.32 440.09 320.24C440.09 320.24 452.45 320.06 453.58 320.1C454.71 320.14 454.72 321.89 454.79 322.81C454.86 323.73 454.87 323.63 454.93 324.42C455.067 325.311 455.305 326.183 455.64 327.02C455.78 327.4 455.91 327.77 456 328.14Z" fill="#455A64"/>
<path d="M430.7 324.74C430.52 324.64 430.324 324.572 430.12 324.54C429.05 324.39 428.24 325.45 427.79 326.28C427.537 326.79 427.352 327.332 427.24 327.89C427.04 328.572 427.04 329.298 427.24 329.98C427.24 330.16 427.43 330.36 427.61 330.31C427.79 330.26 427.81 330.07 427.82 329.9C427.903 328.92 428.167 327.963 428.6 327.08C428.749 326.709 428.966 326.37 429.24 326.08C429.549 325.785 429.912 325.554 430.31 325.4C430.47 325.34 431.19 325.33 431.01 325.02C430.973 324.961 430.921 324.913 430.86 324.88L430.7 324.74Z" fill="#FAFAFA"/>
<path d="M433.8 324.71C433.29 324.663 432.782 324.813 432.38 325.13C431.972 325.513 431.683 326.006 431.55 326.55C431.3 327.119 431.171 327.734 431.171 328.355C431.171 328.976 431.3 329.591 431.55 330.16C431.75 330.48 432.04 330.31 432.15 330.01C432.232 329.646 432.269 329.273 432.26 328.9C432.377 328.081 432.591 327.278 432.9 326.51C433.01 326.2 433.158 325.904 433.34 325.63C433.466 325.451 433.626 325.298 433.81 325.18C433.9 325.125 433.998 325.085 434.1 325.06C434.196 325.039 434.293 325.022 434.39 325.01C434.39 324.86 434.22 324.78 434.07 324.75L433.8 324.71Z" fill="#FAFAFA"/>
<path d="M436.92 323.79C436.566 323.91 436.252 324.125 436.01 324.41C435.808 324.713 435.669 325.053 435.6 325.41C435.373 326.178 435.239 326.97 435.2 327.77C435.182 328.335 435.325 328.893 435.61 329.38C435.73 329.57 435.96 329.75 436.16 329.66C436.36 329.57 436.35 329.2 436.37 329C436.37 328.62 436.37 328.23 436.37 327.86C436.369 326.469 436.803 325.113 437.61 323.98C437.634 323.955 437.652 323.925 437.663 323.892C437.673 323.859 437.676 323.824 437.67 323.79C437.67 323.69 437.5 323.69 437.4 323.7C437.238 323.714 437.077 323.745 436.92 323.79Z" fill="#FAFAFA"/>
<path d="M427.41 325.08C426.32 325.08 424.04 326.6 422.96 329.96C422.327 332.436 422.195 335.013 422.57 337.54C420.292 337.283 418.155 336.306 416.47 334.75C415.921 334.363 415.464 333.858 415.135 333.272C414.805 332.687 414.61 332.035 414.564 331.364C414.518 330.694 414.622 330.021 414.869 329.396C415.116 328.771 415.499 328.209 415.99 327.75C417.56 325.83 419.99 324.55 423.85 324.3C428.18 324.01 428.57 325.16 428.57 325.16L427.41 325.08Z" fill="#FAFAFA"/>
<path d="M454.89 300.37C454.79 307.27 454.19 321.42 454.19 321.42C452.41 323.98 447.72 324.53 444.85 324.29C442.18 323.41 440.75 325.43 438.85 326.78C441.85 319.78 436.52 308.67 436.11 300.78L454.89 300.37Z" fill="#FFA8A7"/>
<path d="M384 362.93C383.37 362.85 383.4 364.73 383.61 365.54C383.82 366.35 386.32 369.09 390.88 370.13C395.44 371.17 401.76 370.45 404.48 370.39C407.2 370.33 411.29 371.72 413.95 372.33C420.14 373.75 423.66 371.57 425.3 370.08C425.568 369.781 425.768 369.428 425.889 369.045C426.01 368.663 426.048 368.259 426 367.86C426 366.06 425.83 365.69 425.62 365.7L384 362.93Z" fill="#37474F"/>
<path d="M424.94 359.93C425.313 361.159 425.617 362.407 425.85 363.67C426.13 365.19 426.39 367.14 425.34 368.33C424.548 369.174 423.593 369.849 422.532 370.313C421.472 370.777 420.328 371.021 419.17 371.03C416.492 371.26 413.796 370.919 411.26 370.03C408.9 369.22 407.02 368.5 404.47 368.59C401.67 368.7 397.81 369.11 395.03 368.77C392.659 368.589 390.331 368.039 388.13 367.14C386.371 366.338 384.926 364.978 384.02 363.27C383.932 361.981 384.24 360.697 384.904 359.589C385.567 358.48 386.553 357.602 387.73 357.07C389.934 356.041 392.365 355.597 394.79 355.78C397.43 355.86 399.42 356.26 401.79 356.16C403.406 356.161 405.005 355.821 406.48 355.16C407.165 354.648 407.695 353.955 408.01 353.16C408.4 352.34 408.56 351.6 409.31 351.54C409.31 351.54 421.67 351.8 422.79 351.89C423.91 351.98 423.87 353.72 423.9 354.64C423.93 355.56 423.96 355.45 423.99 356.25C424.092 357.148 424.3 358.031 424.61 358.88L424.94 359.93Z" fill="#455A64"/>
<path d="M399.73 355.64C399.556 355.529 399.363 355.451 399.16 355.41C398.09 355.22 397.25 356.26 396.77 357.07C396.506 357.573 396.304 358.107 396.17 358.66C395.938 359.333 395.903 360.058 396.07 360.75C396.13 360.93 396.25 361.13 396.43 361.09C396.61 361.05 396.64 360.85 396.66 360.69C396.782 359.711 397.08 358.763 397.54 357.89C397.703 357.517 397.933 357.178 398.22 356.89C398.535 356.604 398.906 356.386 399.31 356.25C399.47 356.19 400.19 356.25 400.02 355.9C399.987 355.839 399.939 355.787 399.88 355.75L399.73 355.64Z" fill="#FAFAFA"/>
<path d="M402.83 355.72C402.325 355.654 401.813 355.782 401.4 356.08C400.983 356.452 400.678 356.934 400.52 357.47C400.241 358.027 400.082 358.635 400.053 359.257C400.024 359.879 400.125 360.5 400.35 361.08C400.54 361.41 400.83 361.25 400.95 360.95C401.049 360.588 401.103 360.215 401.11 359.84C401.254 359.027 401.496 358.235 401.83 357.48C401.951 357.175 402.109 356.886 402.3 356.62C402.427 356.444 402.591 356.297 402.78 356.19C402.872 356.131 402.973 356.091 403.08 356.07C403.177 356.065 403.273 356.065 403.37 356.07C403.37 355.92 403.21 355.83 403.06 355.79L402.83 355.72Z" fill="#FAFAFA"/>
<path d="M406 354.91C405.641 355.009 405.32 355.215 405.08 355.5C404.867 355.779 404.714 356.099 404.63 356.44C404.372 357.201 404.208 357.99 404.14 358.79C404.101 359.353 404.226 359.916 404.5 360.41C404.61 360.6 404.83 360.79 405.03 360.7C405.23 360.61 405.24 360.26 405.27 360.05C405.27 359.68 405.27 359.29 405.27 358.91C405.316 357.52 405.799 356.18 406.65 355.08C406.696 355.031 406.721 354.967 406.72 354.9C406.72 354.8 406.55 354.78 406.45 354.8C406.297 354.824 406.147 354.861 406 354.91Z" fill="#FAFAFA"/>
<path d="M396.43 355.86C395.34 355.86 393.01 357.25 391.81 360.58C391.089 363.031 390.864 365.601 391.15 368.14C388.883 367.801 386.782 366.75 385.15 365.14C384.539 364.591 384.04 363.929 383.68 363.19C383.535 362.303 383.571 361.395 383.785 360.522C384 359.649 384.39 358.829 384.93 358.11C386.56 356.24 389.04 355.06 392.93 354.94C397.28 354.8 397.62 355.94 397.62 355.94L396.43 355.86Z" fill="#FAFAFA"/>
<path d="M425.2 332.07C425.2 332.07 423.53 353.53 423.52 353.62C423.43 354.8 421.33 355.56 420.43 355.82C418.569 356.372 416.641 356.668 414.7 356.7C413.984 356.683 413.269 356.727 412.56 356.83C411.16 357.204 409.861 357.888 408.76 358.83C408.83 358.196 409.02 357.582 409.32 357.02C409.65 356.157 409.76 355.226 409.64 354.31C409.55 353.61 409.16 353.09 409.03 352.41C408.9 351.73 408.84 350.88 408.75 350.12C408.503 347.92 408.27 345.713 408.05 343.5C407.67 339.753 407.307 336.003 406.96 332.25V331.89L425.2 332.07Z" fill="#FFA8A7"/>
<path d="M455.19 265.8C455.19 265.8 455.63 239.22 455.47 228.41C455.174 220.833 454.169 213.3 452.47 205.91L400.32 208.48C400.32 208.48 400.72 234.8 401.45 255.59C402.28 279.42 402.83 287.77 404.28 308.25C404.87 316.66 407.85 345.95 407.85 345.95C407.85 345.95 410.3 348.37 416.63 348.5C419.611 348.626 422.553 347.788 425.02 346.11C425.02 346.11 427.64 319.77 428.43 310.91C428.617 305.842 428.255 300.77 427.35 295.78L430 262.26C430 262.26 431.52 273.51 434.79 293.78C436.14 302.11 438.73 316.38 438.73 316.38C438.73 316.38 442.04 318.38 448.32 317.61C452.75 317.05 453.82 316.21 454.79 315.31C454.75 315.31 457.94 281.45 455.19 265.8Z" fill="#37474F"/>
<path d="M430 262.26L433.68 236.62C433.68 236.62 439.84 235.81 447.88 228.53C447.88 228.53 447.42 234.11 436.66 239.06L432.49 261.16L432.1 276.62C431.29 271.58 430.58 266.77 430 262.26Z" fill="#263238"/>
<path d="M435.52 149.7L433.17 137.82C433.76 135.14 436.68 128.59 436.3 121.14C435.92 113.69 424.64 103.51 416.17 105.41C407.7 107.31 403.7 112.58 402.17 119.26C401.22 123.33 402.35 123.75 402.08 126.06C401.52 130.61 401.2 136.77 403.8 142.46C404.355 143.705 405.246 144.771 406.373 145.537C407.5 146.304 408.818 146.741 410.18 146.8C412.05 146.949 413.932 146.79 415.75 146.33C416.089 148.229 416.326 150.145 416.46 152.07C416.518 152.73 416.326 153.388 415.922 153.914C415.519 154.44 414.933 154.795 414.28 154.91L435.52 149.7Z" fill="#FFBDA7"/>
<path d="M408.52 137.44C408.628 137.698 408.786 137.932 408.985 138.129C409.184 138.326 409.42 138.482 409.679 138.588C409.938 138.694 410.215 138.747 410.495 138.746C410.775 138.745 411.052 138.688 411.31 138.58C411.568 138.472 411.802 138.314 411.999 138.115C412.196 137.916 412.352 137.68 412.458 137.421C412.564 137.162 412.618 136.885 412.616 136.605C412.615 136.325 412.558 136.048 412.45 135.79L408.52 137.44Z" fill="#B16668"/>
<path d="M410.28 138.72C410.417 138.168 410.707 137.667 411.118 137.273C411.529 136.88 412.043 136.612 412.6 136.5C412.625 136.937 412.514 137.372 412.284 137.744C412.053 138.116 411.713 138.408 411.31 138.58C410.984 138.714 410.63 138.763 410.28 138.72Z" fill="#F28F8F"/>
<path d="M411.92 127.25C411.88 127.431 411.877 127.617 411.91 127.799C411.943 127.981 412.012 128.155 412.112 128.31C412.212 128.465 412.343 128.599 412.495 128.704C412.647 128.809 412.819 128.882 413 128.92C413.28 128.987 413.573 128.968 413.842 128.867C414.112 128.766 414.344 128.586 414.51 128.351C414.676 128.116 414.768 127.837 414.774 127.549C414.78 127.262 414.7 126.979 414.544 126.737C414.388 126.496 414.163 126.307 413.898 126.194C413.633 126.082 413.341 126.051 413.059 126.106C412.776 126.161 412.517 126.3 412.314 126.504C412.111 126.707 411.974 126.967 411.92 127.25Z" fill="#263238"/>
<path d="M412.52 122.86L415.62 124.17C415.788 123.745 415.785 123.271 415.612 122.848C415.439 122.425 415.108 122.085 414.69 121.9C414.485 121.815 414.265 121.773 414.043 121.776C413.821 121.778 413.602 121.826 413.4 121.916C413.197 122.005 413.014 122.135 412.863 122.298C412.712 122.46 412.595 122.651 412.52 122.86Z" fill="#B16668"/>
<path d="M401.88 123.81L404.88 122.21C404.786 122.009 404.651 121.83 404.485 121.683C404.319 121.536 404.125 121.425 403.914 121.356C403.704 121.286 403.481 121.261 403.26 121.28C403.04 121.3 402.825 121.365 402.63 121.47C402.23 121.691 401.93 122.056 401.79 122.491C401.651 122.926 401.683 123.398 401.88 123.81Z" fill="#B16668"/>
<path d="M402.51 126.87C402.551 127.115 402.663 127.343 402.833 127.525C403.002 127.708 403.221 127.836 403.463 127.895C403.704 127.954 403.958 127.94 404.192 127.856C404.426 127.772 404.631 127.621 404.78 127.422C404.929 127.223 405.016 126.984 405.031 126.736C405.045 126.487 404.987 126.24 404.862 126.025C404.737 125.81 404.552 125.636 404.33 125.524C404.107 125.413 403.857 125.37 403.61 125.4C403.269 125.45 402.962 125.632 402.756 125.908C402.55 126.183 402.462 126.529 402.51 126.87Z" fill="#263238"/>
<path d="M403.24 133.1L408.39 134.72L408.81 124.94C406.91 124.5 405.07 129.18 403.24 133.1Z" fill="#F0997A"/>
<path d="M415.72 146.33C415.72 146.33 420.27 145.1 421.5 144.19C424.83 141.75 425.94 140.02 426.5 137.7C426.444 139.246 426.013 140.755 425.245 142.098C424.477 143.441 423.394 144.578 422.09 145.41C420.186 146.491 418.175 147.372 416.09 148.04L415.72 146.33Z" fill="#F0997A"/>
<path d="M438 117.11C437.571 115.489 436.583 114.073 435.21 113.11C434.999 112.978 434.765 112.886 434.52 112.84C434.628 111.69 434.501 110.529 434.147 109.429C433.792 108.329 433.218 107.313 432.458 106.442C431.699 105.571 430.77 104.864 429.729 104.363C428.687 103.863 427.555 103.579 426.4 103.53C425.097 103.502 423.798 103.388 422.51 103.19C422.162 103.122 421.825 103.004 421.51 102.84C420.59 102.35 420.03 101.56 418.98 100.96C416.65 99.63 413.24 100.23 412.43 103.06C410.76 101.57 408.95 101.96 406.94 102.88C406.382 103.117 405.893 103.492 405.518 103.969C405.144 104.447 404.897 105.011 404.8 105.61C404.708 106.233 404.756 106.868 404.94 107.47C404.429 107.269 403.882 107.178 403.333 107.201C402.785 107.225 402.247 107.363 401.756 107.607C401.264 107.851 400.829 108.195 400.478 108.618C400.127 109.04 399.869 109.532 399.72 110.06C399.68 110.234 399.663 110.412 399.67 110.59C399.66 110.78 399.66 110.97 399.67 111.16C399.924 112.122 399.872 113.139 399.52 114.07C399.418 114.289 399.283 114.491 399.12 114.67C398.967 114.871 398.772 115.038 398.55 115.158C398.328 115.279 398.082 115.351 397.83 115.37C397.578 115.389 397.324 115.354 397.086 115.268C396.849 115.182 396.632 115.046 396.45 114.87C396.45 116.66 397.4 117.87 399.27 117.41C399.036 117.95 398.927 118.536 398.949 119.125C398.972 119.713 399.126 120.289 399.4 120.81C399.636 121.255 399.964 121.645 400.362 121.954C400.761 122.262 401.22 122.483 401.71 122.6C401.67 121.485 401.795 120.369 402.08 119.29C402.27 118.52 402.48 117.77 402.72 117.03C404.022 117.406 405.366 117.618 406.72 117.66C411.693 117.91 416.643 116.83 421.06 114.53C420.528 116.209 420.192 117.944 420.06 119.7C420.034 120.476 420.18 121.247 420.488 121.96C420.795 122.672 421.257 123.308 421.84 123.82C422.39 124.22 422.31 125.07 422.25 125.66C422.079 126.387 422.022 127.136 422.08 127.88C422.1 127.987 422.133 128.092 422.18 128.19C422.261 128.356 422.379 128.502 422.525 128.616C422.671 128.73 422.841 128.81 423.023 128.848C423.204 128.887 423.391 128.884 423.571 128.839C423.751 128.794 423.918 128.709 424.06 128.59C424.521 128.029 424.862 127.379 425.06 126.68C426.35 122.95 430.01 122.43 431.72 124.02C433.43 125.61 433.57 127.44 432.51 130.78C431.8 133.02 429.71 134.33 427.98 133.83C427.671 133.738 427.38 133.592 427.12 133.4C427.138 134.196 427.349 134.975 427.734 135.672C428.118 136.368 428.666 136.961 429.33 137.4C430.497 137.98 431.829 138.139 433.1 137.85C433.38 136.55 434.19 134.39 434.92 131.65C435.53 130.26 436.15 128.9 436.63 127.65C436.79 127.243 436.93 126.843 437.05 126.45C438.2 122.82 438.72 120.12 438 117.11Z" fill="#B16668"/>
<path d="M435.15 147.81C442.31 144.81 448.24 148.33 450.09 152.57C453.21 159.72 452.86 174.05 452.86 174.05L435.52 149.7L435.15 147.81Z" fill="#37474F"/>
<path d="M444.12 149.08C448.76 151.26 452.01 160.9 452.53 167.87C453.077 174.137 453.093 180.44 452.58 186.71C452.297 191.337 452.324 195.977 452.66 200.6C452.98 205.39 453.79 212.96 453.79 212.96C453.79 212.96 447.17 222.96 430.99 226.24C412.99 229.91 400.58 221.84 400.58 221.84C400.58 221.54 400.31 215.84 399.5 190.39C399.03 175.46 398.81 166.21 401.64 160.9C402.87 159.13 402.15 158.11 407.29 155.23C407.29 155.23 416.98 151.84 424.06 150.14C437.51 146.9 439.26 146.79 444.12 149.08Z" fill="#455A64"/>
<path d="M390.17 375.24C390.17 375.24 390.67 375.24 390.99 377.06C391.31 378.88 392.5 384.5 392.16 387.66C388.79 390.78 382 391.13 378.09 390.12C372.25 388.62 368.56 390.46 363.31 390.74C358.06 391.02 349.83 389.51 348.81 385.26C347.79 381.01 352.23 379.16 355.1 378.69L366.93 376.8L390.17 375.24Z" fill="#263238"/>
<path d="M390.2 361C390.2 361 390.26 372.4 390.3 376C390.3 379.47 386.17 381.55 382.53 382C376.32 382.79 371.53 382.63 364.82 382.67C358.11 382.71 352.33 379.67 360.64 378.02C368.95 376.37 375.44 375.41 376.23 373.83C377.12 372.08 376.23 366.83 375.66 362.88L390.2 361Z" fill="#C8856A"/>
<path d="M363.35 391.22C363.693 393.348 363.717 395.515 363.42 397.65C362.85 399.05 360.18 400.34 358.98 400.65C355.58 401.45 355.17 401.24 349.74 401.52C348.267 401.555 346.801 401.725 345.36 402.03C340.74 403.13 337.17 405.03 332.9 404.92C326.5 404.77 321.84 402.79 319.57 399.81C319.189 398.331 319.287 396.77 319.85 395.35C320.73 393.2 323.53 391.87 325.57 391.35C331.08 389.87 333.78 388.96 337.96 387.57C340.18 386.793 342.348 385.874 344.45 384.82C346.27 383.91 347.45 382.33 349.54 382.2C351.63 382.07 353.62 382.82 355.61 383.3C357.6 383.78 359.94 384.44 362.08 384.89C362.81 385 362.26 385.56 363.35 391.22Z" fill="#263238"/>
<path d="M363.7 367.24C363.43 369.89 362.7 377.4 362.44 380.05C362.22 382.23 362.16 384.47 362.06 386.66C362.068 387.167 361.986 387.671 361.82 388.15C361.443 388.857 360.836 389.414 360.1 389.73C355 392.42 351.43 392.67 345.85 393.73C341.999 394.609 338.094 395.23 334.16 395.59C331.16 395.7 327.79 395.53 326.16 393.86C325.41 393.06 325.62 391.63 328.9 390.58C332.18 389.53 335.14 388.66 338.44 387.31C340.512 386.528 342.519 385.581 344.44 384.48C345.392 384.017 346.196 383.296 346.76 382.4C347.203 381.365 347.411 380.245 347.37 379.12C347.37 377.67 347.3 376.22 347.25 374.77C347.15 372.31 347.07 369.84 346.97 367.38C347 367.4 363.71 367.1 363.7 367.24Z" fill="#C8856A"/>
<path d="M366.3 313C367.3 317.067 367.801 321.242 367.79 325.43C367.41 333.8 367.12 335.98 366.22 345.8C364.83 360.98 363.22 376.1 363.22 376.1C362.22 376.92 361.22 377.78 354.15 378.1C351.695 378.104 349.267 377.582 347.03 376.57C347.03 376.57 343.92 352.08 342.67 341.18C340.56 322.73 339.3 298.72 338.67 279.57C338.05 260.85 338.14 233.94 338.14 233.94L388.41 227.81C388.41 227.81 393.81 236.81 392.65 253.12C391.49 269.43 389.07 303.94 388.78 306.19C388.49 308.44 391.86 315.19 391.78 327C391.7 338.81 390.58 365.52 390.58 365.52C390.58 365.52 384.32 370.05 375.58 366.15C374 356.44 366.3 313 366.3 313Z" fill="#455A64"/>
<path d="M370 261C370 261 376.49 260 383.91 252.65C383.91 252.65 383.26 258.88 372.39 263.82L368.72 313C370.29 319.15 371.27 330 370.27 335.53L367.55 320.06C367.368 317.671 366.949 315.306 366.3 313L370 261Z" fill="#37474F"/>
<path d="M444.72 189.68C444.49 188.68 443.51 188.68 442.72 188.68C441.111 188.949 439.636 189.74 438.52 190.93C437.228 192.034 436 193.209 434.84 194.45C433.782 195.656 432.461 196.603 430.98 197.22C429.98 197.69 428.7 197.78 429.1 196.34C429.59 194.64 430.83 192.74 430.25 190.87C429.85 189.58 428.83 189.65 428.09 190.54C426.877 192.009 425.557 193.386 424.14 194.66C422.7 195.96 421.14 197.09 419.74 198.43C419.025 199.149 418.357 199.914 417.74 200.72C415.96 202.95 413.16 203.28 410.6 203.87C408.85 204.28 405.74 204.87 403.02 205.37C400.62 200.01 392.41 183.37 388.78 178.02C384.96 172.44 381.78 172.78 374.46 171.89L378.46 197.13C378.46 197.13 386.97 211.13 391.11 215.89C395.25 220.65 399.17 220.89 404.04 219.54C409.12 218.11 417.88 213.63 422.74 211.54C424.99 210.54 427.2 209.85 429.52 209.06C431.877 208.078 434.163 206.932 436.36 205.63C437.443 205.04 438.348 204.169 438.98 203.11C439.4 202.44 439.34 201.62 439.73 200.98C440.12 200.34 440.91 200.09 441.19 199.24C441.47 198.39 441.09 197.33 441.42 196.5C441.87 195.66 442.264 194.791 442.6 193.9C442.709 193.12 443 192.376 443.45 191.73C443.81 191.23 444.93 190.57 444.72 189.68Z" fill="#C8856A"/>
<path d="M340.88 141.5C340.244 140.72 339.824 139.787 339.661 138.794C339.497 137.801 339.597 136.782 339.95 135.84C340.55 133.96 341.95 131.92 346.17 129.37C351.17 126.37 365.42 123.52 373.1 132.44C374.21 133.72 361.79 161.12 362.83 166.57C358.93 163 346 150.2 346 150.2C343.06 149.2 341.27 148.2 340.49 145.58C340.187 144.213 340.324 142.785 340.88 141.5Z" fill="#263238"/>
<path d="M343.5 148.86C343.5 148.86 340.04 155.42 340.5 155.86C341.451 156.513 342.454 157.085 343.5 157.57V148.86Z" fill="#AF6152"/>
<path d="M347.57 137.06C345.06 138.45 342.94 140.58 342.49 146.31C342.38 147.81 343.67 149.77 343.27 151.78C341.55 160.39 344.67 167.28 346.42 168.73C347.59 169.73 353.42 169.81 356.42 168.73C360.17 167.42 368.22 163.15 371.8 156.94C376.01 149.62 376.49 140.12 371.08 136.66C363.46 131.83 350.25 135.58 347.57 137.06Z" fill="#C8856A"/>
<path d="M346.69 159.49V159.39C346.69 159.39 346.69 159.29 346.63 159.28C346.57 159.27 346.54 159.28 346.51 159.34C345.987 159.922 345.346 160.386 344.63 160.7C344.455 160.75 344.298 160.851 344.18 160.99C344.148 161.036 344.128 161.089 344.123 161.145C344.119 161.2 344.129 161.256 344.154 161.307C344.179 161.357 344.216 161.399 344.263 161.43C344.31 161.461 344.364 161.478 344.42 161.48C344.62 161.486 344.819 161.444 345 161.36C345.12 161.318 345.234 161.261 345.34 161.19C345.583 161.039 345.807 160.861 346.01 160.66C346.198 160.523 346.356 160.348 346.473 160.147C346.59 159.945 346.664 159.722 346.69 159.49Z" fill="#AF6152"/>
<path d="M369 161.17L371.17 171.53C373.54 171.88 373.93 174.63 372.91 176.79L373.63 179.7L357.87 183.64L355.16 169.13L369 161.17Z" fill="#C8856A"/>
<path d="M346.74 168.92C348.14 169.59 351.16 169.92 355.17 169.13L354.8 167.13C353.546 167.694 352.249 168.156 350.92 168.51C349.554 168.851 348.146 168.989 346.74 168.92Z" fill="#AF6152"/>
<path d="M343.93 140.34C344.02 144.03 348.27 144.7 349.93 145.34C349.39 146.734 349.252 148.251 349.53 149.72C350.02 151.57 350.83 153.05 352.71 153.56C353.86 153.86 354.16 153.35 354.5 152.43C354.99 151.13 355.58 149.15 358.32 149.35C361.45 149.58 362.57 154.21 360.95 157.35C360.642 158.019 360.176 158.602 359.592 159.052C359.009 159.501 358.325 159.802 357.6 159.93C357.196 159.948 356.792 159.88 356.416 159.73C356.041 159.58 355.701 159.352 355.42 159.06C355.893 160.673 356.732 162.154 357.871 163.389C359.011 164.624 360.421 165.579 361.99 166.18C361.99 166.18 364.91 168.18 370.24 166.26C372.519 163.392 374.649 160.408 376.62 157.32C381.82 148.67 382 133.44 372.07 131.32C371.59 131.22 362.67 130.55 358.42 131.76C345.41 135.51 343.92 139.7 343.93 140.34Z" fill="#263238"/>
<path d="M367.4 130.64C366.288 131.558 365.572 132.868 365.4 134.3C365.32 135.015 365.431 135.739 365.72 136.397C366.01 137.056 366.469 137.626 367.05 138.05C370.05 140.05 374.29 137.23 374.6 133.91C374.93 130 370.12 128.33 367.4 130.64Z" fill="#BA68C8"/>
<path d="M369.78 131.73C366.98 133.73 365.44 138.01 367.18 140.95C367.66 141.75 368.3 142.45 368.71 143.29C370.01 145.98 368.56 149.13 368.4 152.12C368.308 154.488 368.865 156.836 370.01 158.91C371.07 160.41 373.23 160.68 374.18 162.28C374.84 163.38 374.53 164.78 374.83 166.03C375.5 168.71 378.78 169.81 381.55 169.7C383.9 169.6 386.39 168.85 387.78 166.96C388.357 165.925 388.991 164.924 389.68 163.96C391.22 162.31 393.89 162.22 395.57 160.71C396.203 160.073 396.679 159.298 396.964 158.447C397.248 157.595 397.333 156.689 397.21 155.8C396.955 154.022 396.382 152.305 395.52 150.73C394.16 147.92 394.99 146.08 395.41 143.17C395.589 141.597 395.23 140.01 394.391 138.668C393.551 137.326 392.282 136.308 390.79 135.78C388.73 135.12 386.3 135.41 384.59 134.07C383.67 133.35 383.12 132.24 382.27 131.43C379 128.3 373.06 129.42 369.78 131.73Z" fill="#263238"/>
<path d="M384.26 179.28C382.54 174.72 377.65 172.56 376.19 172.23C374.73 171.9 371.19 171.53 371.19 171.53C372.12 173.33 370.83 174.63 368.47 175.33C365.47 176.25 360.76 176.63 357.47 174.71L356.11 173.98C356.11 173.98 348.22 176.54 346.01 177.73C345.34 178.1 340.41 179.06 335.23 193C333.01 199 332.84 205.54 337.85 209.42C338.35 213.08 337.85 221.42 337.85 221.42C337.57 233.01 337.31 242.42 337.31 242.42C337.31 242.42 342.77 248.91 365.31 248.1C386.81 247.33 392.43 238.17 392.43 238.17C391.95 233.9 386.23 220.81 386.57 215.76C387.08 208.36 389.52 193.22 384.26 179.28Z" fill="#BA68C8"/>
<path d="M325.43 404C325.545 404.06 325.634 404.159 325.68 404.28C325.777 404.565 325.926 404.83 326.12 405.06C326.41 406.122 326.266 407.255 325.72 408.21C325.105 409.052 324.3 409.738 323.37 410.21C321.73 411.082 319.898 411.528 318.041 411.509C316.184 411.49 314.362 411.005 312.74 410.1C311.957 409.604 311.264 408.978 310.69 408.25C310.149 407.596 309.539 407.002 308.87 406.48C308.273 406.039 307.637 405.655 306.97 405.33C305.24 404.33 303.27 403.72 301.7 402.43C299.991 401.157 298.779 399.329 298.27 397.26C297.85 395.664 297.771 393.998 298.04 392.37C298.17 391.71 298.47 390.93 299.12 390.82C299.77 390.71 300.26 391.29 300.66 391.82C303.441 395.606 306.929 398.819 310.93 401.28C314.757 403.585 319.246 404.543 323.68 404C324.12 403.94 325 403.7 325.43 404Z" fill="#263238"/>
<path d="M319.67 410.12C317.502 410.506 315.267 410.136 313.34 409.07C312.311 408.423 311.344 407.683 310.45 406.86C308.897 405.446 307.182 404.22 305.34 403.21C304.49 402.78 303.58 402.42 302.77 401.91C300.478 400.357 298.896 397.958 298.37 395.24C298.043 393.981 298.008 392.664 298.27 391.39C298.97 388.54 301.82 386.94 304.61 386.97C305.833 387.026 307.038 387.279 308.18 387.72C308.849 387.946 309.498 388.227 310.12 388.56C310.6 388.82 311.06 389.14 311.56 389.37C312.627 389.791 313.779 389.949 314.92 389.83C316.68 389.83 318.44 389.72 320.2 389.71C321.51 389.71 323.61 389.26 324.27 390.71C324.505 391.373 324.597 392.079 324.54 392.78C324.535 393.866 324.595 394.951 324.72 396.03C324.873 397.068 325.086 398.097 325.36 399.11C325.794 400.941 326.046 402.81 326.11 404.69C326.225 405.43 326.105 406.188 325.768 406.857C325.431 407.525 324.893 408.072 324.23 408.42C322.861 409.329 321.3 409.911 319.67 410.12Z" fill="#37474F"/>
<path d="M302.31 401.61C302.01 400.12 302.94 394.79 305.66 392.01C307.049 390.466 308.844 389.344 310.84 388.77C310.84 388.77 307.56 386.56 304.33 386.77C301.1 386.98 298.33 388.77 298.06 392.06C297.79 395.35 298.63 399.33 302.31 401.61Z" fill="#263238"/>
<path d="M324.38 370.76C324.38 370.76 323.87 388.63 323.91 392.29C323.91 393.85 320.52 395.93 315.48 396C311.94 396.05 309.48 394.28 309.01 392.61C308.54 390.94 305.95 372.61 305.95 372.61L324.38 370.76Z" fill="#FFA8A7"/>
<path d="M287.05 411.14C287.16 411.209 287.242 411.316 287.28 411.44C287.35 411.731 287.476 412.006 287.65 412.25C287.755 412.785 287.752 413.335 287.643 413.869C287.533 414.403 287.318 414.91 287.01 415.36C286.334 416.151 285.481 416.771 284.52 417.17C282.816 417.912 280.953 418.216 279.102 418.054C277.25 417.891 275.469 417.268 273.92 416.24C273.181 415.682 272.54 415.006 272.02 414.24C271.534 413.545 270.975 412.904 270.35 412.33C269.784 411.85 269.179 411.418 268.54 411.04C266.9 409.89 264.98 409.15 263.54 407.74C261.942 406.336 260.881 404.42 260.54 402.32C260.244 400.698 260.295 399.031 260.69 397.43C260.87 396.77 261.23 396.03 261.89 395.96C262.55 395.89 262.99 396.52 263.35 397.06C265.827 401.051 269.053 404.525 272.85 407.29C276.472 409.878 280.853 411.183 285.3 411C285.75 411 286.61 410.84 287.05 411.14Z" fill="#263238"/>
<path d="M280.83 416.83C278.639 417.042 276.441 416.498 274.6 415.29C273.625 414.564 272.718 413.75 271.89 412.86C270.452 411.344 268.841 410.001 267.09 408.86C266.26 408.36 265.39 407.93 264.62 407.36C262.455 405.631 261.063 403.114 260.75 400.36C260.529 399.077 260.601 397.761 260.96 396.51C261.87 393.72 264.84 392.35 267.62 392.6C268.833 392.745 270.014 393.082 271.12 393.6C271.771 393.879 272.396 394.214 272.99 394.6C273.45 394.9 273.89 395.25 274.36 395.52C275.39 396.021 276.525 396.268 277.67 396.24C279.43 396.35 281.19 396.41 282.95 396.53C284.26 396.62 286.38 396.35 286.95 397.88C287.116 398.575 287.133 399.298 287 400C286.792 402.128 286.903 404.275 287.33 406.37C287.618 408.232 287.722 410.118 287.64 412C287.696 412.747 287.517 413.493 287.128 414.133C286.739 414.773 286.159 415.276 285.47 415.57C284.04 416.339 282.453 416.77 280.83 416.83Z" fill="#37474F"/>
<path d="M264.19 407C264.01 405.49 265.35 400.25 268.28 397.69C269.783 396.259 271.657 395.278 273.69 394.86C273.69 394.86 270.59 392.41 267.36 392.38C264.13 392.35 261.21 393.88 260.69 397.16C260.17 400.44 260.69 404.42 264.19 407Z" fill="#263238"/>
<path d="M288.59 378C288.59 378 286.7 395.77 286.45 399.42C286.34 400.98 282.79 402.78 277.75 402.42C274.22 402.19 271.96 400.25 271.57 398.54C271.18 396.83 270.07 378.4 270.07 378.4L288.59 378Z" fill="#FFA8A7"/>
<path d="M270.41 388.54L271.14 394.1C271.14 394.1 272.82 396.25 279.27 396.1C285.72 395.95 287.14 393.9 287.14 393.9L287.64 389.07L270.41 388.54Z" fill="#263238"/>
<path d="M306.8 382.25L307.9 386.95C307.9 386.95 311.15 388.95 316.79 388.28C322.43 387.61 324.23 385.9 324.23 385.9L324.69 379.67L306.8 382.25Z" fill="#263238"/>
<path d="M325.85 342.45C325.825 336.372 325.31 330.305 324.31 324.31C324.31 324.31 323.74 290 324.31 278.83C324.88 267.66 323.31 252.38 323.31 252.38L267.26 251.85C267.26 251.85 265.64 275.18 265.55 297.85C265.49 311.85 265.86 338.52 266.61 359.22C267.18 375 267.61 387.09 270.42 388.71C270.42 388.71 272.78 391.44 279.11 391.5C282.053 391.638 284.966 390.851 287.44 389.25C291.16 386.67 291.07 372.96 291.3 363.14C291.38 359.47 297.14 317.91 297.14 317.91C298.14 328.48 297.89 331.97 300.07 350.03C301.15 358.97 303.5 371.43 304.16 375.19C304.82 378.95 305.28 381.78 307.3 382.87C310.17 384.41 320.77 383.69 324.3 381.22C325.93 380.08 325.96 376.94 326.02 369.68C326 367.16 325.9 352.63 325.85 342.45Z" fill="#37474F"/>
<path d="M297.13 317.74L301.48 283C301.48 283 307.69 282.61 316.22 275.67C316.22 275.67 315.37 281.4 304.29 285.73L299.23 319.18L298.32 333.18C297.91 327.92 297.44 322.44 297.13 317.74Z" fill="#263238"/>
<path d="M311.41 185.39C318.51 185.96 322.48 187.02 326.21 193.76C327.327 195.817 328.309 197.945 329.15 200.13C329.92 202.13 330.15 204.06 330.75 206.06C332.182 210.78 333.186 215.62 333.75 220.52C333.975 221.988 333.975 223.482 333.75 224.95C332.91 229.22 329.31 233.13 326.63 236.46C324.84 238.7 323.02 240.93 321.39 243.29C320.32 244.84 318.11 247.07 315.94 247.05C315.455 247.03 314.977 246.921 314.53 246.73C311 245.23 308.151 242.476 306.53 239C306.427 238.826 306.365 238.631 306.35 238.43C306.369 238.131 306.485 237.847 306.68 237.62L315.04 225.46C315.616 224.747 316.013 223.907 316.2 223.01C316.233 222.476 316.186 221.94 316.06 221.42C315.506 218.527 314.771 215.671 313.86 212.87C313.39 211.43 312.86 210.01 312.31 208.59C311.789 207.564 311.393 206.48 311.13 205.36L311.41 185.39Z" fill="#455A64"/>
<path d="M290.01 182.36L291.23 197L309.53 193.27L307.26 178.08L290.01 182.36Z" fill="#FFA8A7"/>
<path d="M280 158.27C278.304 161.287 276.855 164.438 275.67 167.69L279.99 169.47C280.77 165.05 281.2 160.94 280 158.27Z" fill="#F28F8F"/>
<path d="M287.74 145.48C282.21 145.75 277.42 151.76 279.88 160.55C279.86 161.986 279.719 163.418 279.46 164.83C278.46 172.6 279.66 179.38 281.22 181.07C283.115 182.156 285.207 182.851 287.375 183.113C289.543 183.376 291.741 183.202 293.84 182.6C297.66 181.67 307.33 178.94 311.51 172.93C316.42 165.86 317.93 156.13 313 151.99C306.05 146.16 290.79 145.33 287.74 145.48Z" fill="#FFA8A7"/>
<path d="M281.22 181.07C282.08 182 286.94 184.13 290.09 183.84L289.98 181.84C287.038 182.119 284.069 181.858 281.22 181.07Z" fill="#F28F8F"/>
<path d="M285.83 166.05C285.904 166.237 286.032 166.397 286.198 166.509C286.364 166.622 286.56 166.682 286.76 166.682C286.961 166.682 287.157 166.622 287.322 166.509C287.488 166.397 287.616 166.237 287.69 166.05C288.131 165.122 288.674 164.247 289.31 163.44C290.129 162.507 291.266 161.911 292.5 161.77C297.11 161.4 296.95 167.58 295.04 170.03C291.91 174.03 289.5 171.38 289.5 171.38C289.5 171.38 288.72 177.92 293.1 180.71C293.1 180.71 302.42 182.15 307.37 179.71C310.106 175.91 312.601 171.942 314.84 167.83C319.69 158.3 318.36 149.83 314.01 148.06C313.75 144.99 311.39 140.69 304.75 139.06C298.41 137.49 294.48 138.36 290.23 139.28C285.98 140.2 281.01 142.99 276.5 140.28C276.202 141.558 276.212 142.888 276.53 144.161C276.849 145.434 277.466 146.613 278.33 147.6C277.644 147.417 276.913 147.508 276.293 147.855C275.673 148.202 275.213 148.777 275.01 149.457C274.807 150.138 274.877 150.871 275.206 151.501C275.534 152.13 276.096 152.607 276.77 152.83C276.381 153.14 276.111 153.576 276.007 154.063C275.903 154.55 275.971 155.058 276.2 155.5C276.449 155.93 276.816 156.279 277.257 156.508C277.698 156.736 278.195 156.834 278.69 156.79C279.602 156.702 280.499 156.5 281.36 156.19C281.41 158.29 284.12 160.19 286.45 159.66C286.38 159.66 286.15 160.2 286.12 160.27C286.012 160.487 285.919 160.711 285.84 160.94C285.679 161.391 285.562 161.857 285.49 162.33C285.337 163.285 285.374 164.26 285.6 165.2C285.625 165.495 285.703 165.783 285.83 166.05Z" fill="#263238"/>
<path d="M316.94 187.37C321.53 190 324.94 198.67 324.56 205.87C324.3 210.43 323.29 222.5 322.94 232.6C322.82 235.91 324.51 261.05 324.51 261.05C324.51 261.05 316.86 269.28 298.44 270.5C276.75 271.94 265.83 266.05 265.83 266.05C265.83 266.05 266.5 244.75 267.16 230.75C268.16 209.99 270.08 203.94 273.39 196.9C274.49 194.82 274.97 193.15 278.39 191.84L290.51 188.72C296.26 188.95 305.66 187.97 308.38 185.72L308.27 184.8C313.2 185.25 314.1 185.75 316.94 187.37Z" fill="#F0F0F0"/>
<path d="M225.56 412.53C225.45 412.597 225.365 412.699 225.32 412.82C225.14 413.527 225.12 414.264 225.26 414.98C225.31 415.75 225.62 416.48 226.14 417.05C226.734 417.631 227.437 418.086 228.21 418.39C229.915 419.199 231.794 419.575 233.679 419.486C235.564 419.397 237.398 418.846 239.02 417.88C239.748 417.441 240.389 416.872 240.91 416.2C241.407 415.443 241.952 414.718 242.54 414.03C242.999 413.556 243.509 413.133 244.06 412.77C245.72 411.65 247.65 410.94 249.15 409.56C250.779 408.188 251.882 406.294 252.27 404.2C252.585 402.58 252.565 400.912 252.21 399.3C252.04 398.65 251.69 397.89 251.04 397.82C250.39 397.75 249.92 398.36 249.56 398.89C247.003 402.829 243.714 406.241 239.87 408.94C236.194 411.484 231.772 412.723 227.31 412.46C226.86 412.42 226 412.23 225.56 412.53Z" fill="#37474F"/>
<path d="M231.55 417.89C233.79 418.05 235.97 418.2 237.92 416.89C238.912 416.185 239.837 415.388 240.68 414.51C242.144 413.007 243.782 411.684 245.56 410.57C246.39 410.08 247.27 409.67 248.06 409.12C250.253 407.426 251.69 404.936 252.06 402.19C252.313 400.917 252.268 399.603 251.93 398.35C251.06 395.54 248.12 394.11 245.34 394.35C244.121 394.494 242.933 394.831 241.82 395.35C241.166 395.616 240.534 395.934 239.93 396.3C239.47 396.6 239.03 396.94 238.54 397.2C237.502 397.682 236.364 397.909 235.22 397.86C232.65 397.97 230.06 397.98 227.5 398.22C226.19 398.34 226.43 400.13 226.41 401.08C226.39 402.03 226.36 401.92 226.34 402.74C226.134 404.43 225.8 406.101 225.34 407.74C225.01 409.594 224.87 411.477 224.92 413.36C224.884 414.07 225.066 414.775 225.441 415.379C225.817 415.983 226.367 416.458 227.02 416.74C228.425 417.458 229.973 417.852 231.55 417.89Z" fill="#455A64"/>
<path d="M251.06 405.44C251.06 401.54 245.22 396.44 239.46 396.79C240.57 394.91 244.38 393.65 247.54 394.33C250.7 395.01 254.46 398.1 251.06 405.44Z" fill="#FAFAFA"/>
<path d="M224.65 376.93L227.01 399.93C227.01 401.48 230.33 403.42 235.08 403.29C238.42 403.19 240.61 401.34 241.03 399.65C241.45 397.96 243.91 377.28 243.91 377.28L224.65 376.93Z" fill="#FFC4C3"/>
<path d="M180.66 380.47L184.86 362.25L201.75 368.44L190.32 389.55L180.66 380.47Z" fill="#FFC4C3"/>
<path d="M174.48 385.38C174.245 386.944 174.306 388.538 174.66 390.08C174.85 391.64 175.06 393.17 175.17 394.74C175.214 395.691 175.335 396.638 175.53 397.57C175.678 398.704 175.712 399.85 175.63 400.99C175.63 402.19 175.63 403.38 175.63 404.58C175.69 405.088 175.69 405.602 175.63 406.11C175.5 406.61 183.16 411.11 186.25 412.82C186.43 412.92 186.61 413 186.81 413.1C187.676 413.401 188.609 413.454 189.503 413.253C190.397 413.051 191.217 412.603 191.87 411.96C192.524 410.366 192.683 408.612 192.326 406.927C191.97 405.241 191.114 403.702 189.87 402.51C189.87 402.51 189.48 402.51 189.58 399.51C189.58 397.35 189.65 395.15 189.88 393C190.02 391.64 190.58 391.21 191.11 389.95C191.64 388.69 192.5 387.6 192.46 386.31C192.246 385.081 191.787 383.908 191.11 382.86C189.99 380.86 187.52 379.28 185.52 378.36C184.38 377.84 182.52 377.26 181.34 377.96C180.71 378.34 180.4 379.08 179.94 379.66C179.361 380.306 178.687 380.859 177.94 381.3C176.454 382.148 175.284 383.457 174.61 385.03C174.55 385.13 174.51 385.26 174.48 385.38Z" fill="#455A64"/>
<path d="M189.88 402.51C190.254 402.967 190.589 403.456 190.88 403.97C192.225 406.411 192.583 409.274 191.88 411.97C197.32 411.53 198.78 408.4 198.78 408.4C198.78 408.4 199.11 405.69 196 403.69C195.625 403.447 195.23 403.237 194.82 403.06H194.76C193.231 402.37 191.524 402.177 189.88 402.51Z" fill="#FAFAFA"/>
<path d="M173.2 386.22C171.77 386.76 172.1 390.69 172.97 394.48C173.84 398.27 174.32 399.59 173.83 402.73C173.34 405.87 173.06 407.27 174.33 408.44C175.6 409.61 185.76 414.44 185.76 414.44C184.402 410.64 183.67 406.645 183.59 402.61C183.39 395.61 182.96 391.15 179.76 387.95C178.96 387.046 177.91 386.399 176.742 386.091C175.575 385.783 174.342 385.828 173.2 386.22Z" fill="#263238"/>
<path d="M198.79 408.39C196.287 410.287 193.353 411.534 190.25 412.02C185.69 412.5 185.48 410.75 185.05 405.35C184.62 399.95 184.51 392.49 182.42 389.19C180.33 385.89 176.76 384.4 175.36 384.72C175.07 384.57 173.67 385.59 173.2 386.22C174.307 386.181 175.409 386.379 176.433 386.799C177.457 387.22 178.38 387.855 179.14 388.66C181.96 391.47 182.42 397.34 182.5 402.66C182.58 407.98 182.76 414.17 187 414.86C189.064 415.102 191.155 414.925 193.148 414.339C195.141 413.753 196.996 412.77 198.6 411.45C200.24 410.13 198.79 408.39 198.79 408.39Z" fill="#37474F"/>
<path d="M189.58 400.52C189.744 400.638 189.884 400.786 189.99 400.958C190.096 401.13 190.168 401.321 190.2 401.52C190.219 402.083 190.082 402.64 189.805 403.13C189.528 403.62 189.122 404.025 188.63 404.3C188.05 404.62 187.56 404.49 188.5 403.37C189.104 402.531 189.477 401.548 189.58 400.52Z" fill="#FAFAFA"/>
<path d="M189.7 396.77C189.921 396.989 190.056 397.28 190.08 397.59C189.848 398.772 189.167 399.819 188.18 400.51C187.18 400.95 187.73 399.85 188.18 399.34C188.751 398.523 189.259 397.664 189.7 396.77Z" fill="#FAFAFA"/>
<path d="M190 392.64C190.123 392.708 190.229 392.805 190.309 392.921C190.389 393.037 190.441 393.17 190.46 393.31C190.46 393.75 188.46 395.31 187.78 395.21C187.1 395.11 186.99 394.95 187.78 394.41C188.57 393.87 190 392.64 190 392.64Z" fill="#FAFAFA"/>
<path d="M196.9 378.53C196.9 378.53 200.33 372.53 210.36 351.99C215.8 340.89 217.36 335.11 218.24 330.99C219.12 326.87 219.55 315.44 219.55 315.44L222.11 335.93C221.2 341.36 219.78 352.12 221.45 363.2C223.5 376.87 225.69 393.54 225.69 393.54C226.82 394.41 231.11 395.2 234.05 394.99C241.39 394.45 242.75 391.48 242.75 391.48C242.75 391.48 246.31 362.68 247.24 353.21C249.41 330.94 250.04 325.69 251.38 300.03C252.51 278.31 250.58 264.85 244.66 245.32C228.66 252.38 207.12 250.82 198.29 242.8C198.29 242.8 189.35 258.53 189.49 273.89C189.64 289.97 191.43 326.63 191.43 326.63C187.8 334.27 186.49 341.36 185.18 350.57C184.01 358.82 182.61 370.48 182.61 370.48C191.7 370.32 196.9 378.53 196.9 378.53Z" fill="#37474F"/>
<path d="M241.38 270.9C240.653 263.123 239.008 255.46 236.48 248.07C236.9 247.97 237.32 247.86 237.73 247.74C240.592 255.148 242.423 262.914 243.17 270.82C247.09 269.96 247.87 264.42 247.78 261.09C247.688 259.107 247.461 257.132 247.1 255.18C246.88 253.84 246.55 252.44 246.32 251.05C247.41 254.96 248.32 258.68 249.08 262.31C249.08 262.46 249.08 262.61 249.08 262.76C248.84 266.34 247.23 271.29 243.31 272.16C244.05 279.66 244.2 287.27 244.31 294.76C244.537 314.82 243.923 334.87 242.47 354.91C241.8 364.1 239.63 385.1 238.33 394.25C237.81 394.4 237.23 394.54 236.58 394.66C237.26 386.66 239.75 366.98 240.37 358.97C241.143 349.09 241.707 339.19 242.06 329.27C242.433 318.97 242.59 308.663 242.53 298.35C242.44 289.2 242.32 280 241.38 270.9Z" fill="#263238"/>
<path d="M244.66 245.3L243.43 237.55C243.43 237.55 232.99 243.27 220.62 242.41C213.242 241.896 206.156 239.33 200.16 235L198.29 242.74C198.29 242.74 203.48 250.49 220.67 250.41C237.86 250.33 244.66 245.3 244.66 245.3Z" fill="#263238"/>
<path d="M219.55 315.42L215.55 281.14C215.55 281.14 209.85 281.47 201.14 273.68C201.14 273.68 202.48 280.23 211.88 284.8L216.88 314.26L218.24 331C219.037 325.843 219.475 320.637 219.55 315.42Z" fill="#263238"/>
<path d="M205.64 188.53C198.64 188.53 195.11 189.06 188.39 198.62L175.62 216.8C175.62 216.8 160.85 210.68 157.31 208.1C153.77 205.52 155.38 204.34 154.19 199.31C153.19 195.17 154.33 193.31 153.38 192.11C152.61 191.11 150.31 192.17 150.14 197.49C150.14 198.36 150.07 200.66 148.73 200.6C147.61 200.6 146.98 198.96 146.65 198.15C145.03 194.25 146.03 189.59 143.65 185.95C143.47 185.615 143.195 185.34 142.86 185.16C142.693 185.08 142.503 185.058 142.322 185.097C142.141 185.137 141.978 185.237 141.86 185.38C141.788 185.525 141.741 185.68 141.72 185.84C141.4 187.97 141.78 190.18 141.36 192.29C141.04 193.86 140.3 195.38 140.48 196.97C140.55 197.6 140.77 198.21 140.79 198.85C140.71 199.73 140.546 200.601 140.3 201.45C139.96 203.56 141.3 205.65 142.08 207.52C142.955 209.512 144.106 211.37 145.5 213.04C146.06 213.72 151.12 217.29 152.5 218.24C155.77 220.55 164.89 226.48 171.28 230.14C177.01 233.42 179.57 234.03 184.28 229.3C190.38 223.22 197.28 215.3 197.28 215.3L205.64 188.53Z" fill="#FFC4C3"/>
<path d="M243 162.93C243 162.93 246.33 169.78 245.8 170.25C244.917 170.661 243.97 170.915 243 171V162.93Z" fill="#FFA8A7"/>
<path d="M235.53 146.29C238.18 148.17 242.95 150.43 243.95 159.01C244.13 160.49 243.24 162.6 243.19 164.42C243.14 166.47 243.67 168.83 243.48 170.42C242.48 178.85 239.55 181.73 237.89 182.89C236.56 183.82 230.47 183.32 227.47 181.89C223.71 180.11 215.79 174.7 212.75 167.66C209.17 159.38 209.7 149.13 215.75 145.98C224.19 141.56 232.9 144.43 235.53 146.29Z" fill="#FFC4C3"/>
<path d="M242.1 174.57C241.96 174.48 241.8 174.44 241.65 174.36H241.6L241.53 174.31C241.469 174.277 241.412 174.237 241.36 174.19L241.23 174.08L241.14 173.99C241.03 173.88 240.95 173.74 240.84 173.63C240.793 173.578 240.733 173.539 240.667 173.518C240.6 173.497 240.528 173.494 240.46 173.51C240.403 173.53 240.355 173.571 240.325 173.625C240.296 173.678 240.287 173.74 240.3 173.8V173.92C240.3 174.01 240.4 174.09 240.45 174.18C240.493 174.249 240.54 174.316 240.59 174.38C240.834 174.666 241.129 174.903 241.46 175.08C241.649 175.193 241.861 175.261 242.08 175.28C242.116 175.284 242.152 175.281 242.186 175.27C242.221 175.26 242.253 175.242 242.28 175.219C242.307 175.195 242.329 175.166 242.345 175.134C242.36 175.101 242.369 175.066 242.37 175.03C242.374 174.935 242.351 174.842 242.303 174.76C242.255 174.678 242.185 174.612 242.1 174.57Z" fill="#FFA8A7"/>
<path d="M237.54 183.08C236.01 183.65 231.95 183.38 229.02 182.5L228.7 179.93C230.158 180.778 231.676 181.52 233.24 182.15C234.616 182.682 236.067 182.996 237.54 183.08Z" fill="#F28F8F"/>
<path d="M240.64 143.16C240.911 143.248 241.175 143.355 241.43 143.48C242.808 144.219 243.985 145.283 244.86 146.58C246.162 148.55 246.858 150.859 246.86 153.22C246.967 154.714 246.584 156.202 245.77 157.46C244.772 158.653 243.42 159.497 241.91 159.87C242.348 159.183 242.581 158.385 242.581 157.57C242.581 156.755 242.348 155.957 241.91 155.27C241.91 157.07 241.65 159.37 240.48 160.64C239.548 161.673 238.306 162.375 236.94 162.64C237.301 163.787 237.269 165.023 236.85 166.15C236.751 166.483 236.56 166.781 236.3 167.01C235.55 167.6 234.84 166.8 234.48 166.18C234.24 165.76 234.06 165.31 233.83 164.88C233.579 164.272 233.191 163.731 232.697 163.297C232.203 162.864 231.615 162.55 230.98 162.38C230.29 162.215 229.567 162.255 228.899 162.495C228.231 162.735 227.648 163.164 227.22 163.73C226.75 164.67 226.486 165.7 226.446 166.75C226.406 167.801 226.592 168.847 226.99 169.82C227.76 171.54 228.84 172.63 230.06 172.88C230.545 172.979 231.045 172.968 231.525 172.846C232.005 172.725 232.451 172.497 232.83 172.18C232.83 172.18 230.62 178.85 224.69 180.18C224.69 180.18 218.26 180.89 213.07 177.98C212.49 177.66 211.79 175.67 211.42 175.06C210.72 173.9 209.98 172.75 209.24 171.6C208.121 169.724 207.193 167.741 206.47 165.68C204.69 161.2 204.79 156.24 205.78 151.45C206.52 147.87 209.78 144.33 209.78 144.33C211.1 142.89 211.94 141.33 213.62 140.2C215.246 139.083 217.063 138.273 218.98 137.81C223.115 136.818 227.444 137.002 231.48 138.34C233.793 139.074 235.971 140.178 237.93 141.61C238.674 142.354 239.62 142.865 240.65 143.08L240.64 143.16Z" fill="#F0997A"/>
<path d="M198.66 195.37C200.4 190.65 202.29 187.63 211.44 188.94L212.72 189.1C215.95 189.89 220.51 190.6 228.86 192.1C229.86 192.39 236.86 193.66 238.47 194.05C238.47 194.05 245.9 197.36 247.33 214.66C247.71 219.29 246.06 241.56 246.06 241.56C246.06 241.56 236.46 249.24 217.33 247.14C200.98 245.35 196.33 238.14 195.03 235.54C195.03 235.54 196.08 230.88 196.91 224.22C196.68 214.33 193.57 209.15 198.66 195.37Z" fill="#BA68C8"/>
<path d="M210 144.2C210 144.2 203 144.31 201.34 156.2C200.34 163.09 200.98 172.2 198.92 180.75C197.92 185.08 196.48 189.1 196.6 193.62C196.707 198.19 197.959 202.659 200.24 206.62C200.84 204.47 201.43 202.32 202.03 200.17C201.464 203.182 202.008 206.297 203.56 208.94C205.112 211.556 207.081 213.9 209.39 215.88C209.8 213.702 210.42 211.569 211.24 209.51C211.92 211.066 212.182 212.772 212 214.46C213.932 213.527 215.546 212.045 216.64 210.2C216.64 211.35 216.64 212.5 216.69 213.65C216.677 213.835 216.719 214.019 216.81 214.18C217.02 214.46 217.44 214.41 217.81 214.32C221.81 213.32 231.98 202.6 234 193.32L239.87 194.56C239.87 194.56 240.67 192.7 238.14 188.56C235.61 184.42 233.83 182.68 232.93 172.23C230.78 175.34 224.93 178.09 221.52 174.49C218.11 170.89 210 144.2 210 144.2Z" fill="#F0997A"/>
<path d="M262.85 243.43C265.3 242.63 267.12 239.8 270.68 232.53C275.12 223.47 277.51 221.45 280.78 212.17C283.53 205.38 280.6 194.86 277.67 192.52C271.13 194.44 267.33 197.44 263.58 205.1C260.22 211.98 255.22 222.3 252.16 228.41C249.22 229.023 246.27 229.613 243.31 230.18C240.877 230.647 238.443 231.093 236.01 231.52C233.43 231.95 230.79 232.58 228.32 231.37C227.437 230.98 226.601 230.49 225.83 229.91C224.94 229.17 224.1 228.41 223.14 227.76C221.276 226.466 219.23 225.455 217.07 224.76C216.916 224.693 216.747 224.669 216.58 224.69C215.85 224.86 216.07 226.13 216.31 226.58C217.08 228.05 218.65 229.08 219.78 230.28C219.99 230.51 220.23 230.83 220.09 231.11C219.95 231.39 219.65 231.41 219.38 231.42C217.46 231.42 215.72 230.42 214.13 229.3C212.54 228.18 210.88 227.09 208.97 226.94C208.2 226.87 207.43 226.94 206.68 226.87C205.939 226.677 205.188 226.527 204.43 226.42C204.047 226.378 203.662 226.471 203.341 226.682C203.019 226.894 202.782 227.212 202.67 227.58C202.55 228.42 203.4 229.13 203.44 229.98C203.44 230.57 203.08 231.12 203.02 231.71C202.91 232.82 203.88 233.71 204.48 234.63C204.89 235.28 205.14 236.02 205.57 236.63C206.134 237.352 206.809 237.98 207.57 238.49C208.57 239.28 209.63 240.08 210.73 240.77C211.83 241.46 212.97 242.02 214.12 242.58C219.83 245.34 226.31 245.38 232.52 245.12C235.89 244.97 239.27 244.85 242.65 244.71C246.81 244.53 250.98 244.35 255.14 244.11C257.699 244.103 260.252 243.869 262.77 243.41L262.85 243.43Z" fill="#FFA8A7"/>
<path d="M278.11 191.74C273.4 193 266.76 195 263 203.17C259.87 210.08 251.78 227.73 251.78 227.73L242 230.44C241.2 231.593 240.646 232.898 240.374 234.275C240.102 235.652 240.118 237.07 240.42 238.44C241.33 243.06 243.36 245.15 243.36 245.15C243.36 245.15 248.41 245.04 257.01 244.8C265.61 244.56 266.24 242.57 268.15 238.8C270.06 235.03 281.78 212.58 281.78 212.58C281.78 212.58 285.67 198.52 278.11 191.74Z" fill="#455A64"/>
<path d="M348.89 181.64C347.95 179.77 345.08 177.55 345.08 177.55C332.99 182.69 333.9 192.85 333.69 202.55C333.48 212.25 332.55 223.21 332.55 223.21C328.087 225.723 323.4 227.815 318.55 229.46C315.55 230.37 313.41 230.85 310.49 229.87C309.49 229.52 308.56 229.02 307.49 228.73C305.56 228.19 303.62 227.84 301.69 227.48C299.818 227.093 297.971 226.592 296.16 225.98C295.06 225.64 294.16 226.09 294.43 227.4C294.83 229.26 296.81 230.25 297.99 231.53C298.99 232.62 297.86 233.16 296.75 233.26C295.151 233.478 293.523 233.345 291.98 232.87C290.334 232.404 288.665 232.023 286.98 231.73C285.391 231.304 283.709 231.388 282.17 231.97C281.32 232.35 280.67 232.87 280.82 233.85C280.87 234.18 281.21 234.4 281.42 234.52C281.575 234.6 281.74 234.66 281.91 234.7L282.28 234.79C282.48 234.85 282.84 234.9 283.05 234.99C283.756 235.342 284.38 235.839 284.88 236.45C285.51 237.07 286.45 237.51 287.15 238.08C287.85 238.65 288.04 239.73 288.69 240.31C289.34 240.89 290.12 240.72 290.81 241.1C291.5 241.48 291.81 242.18 292.53 242.54C293.613 243.122 294.831 243.408 296.06 243.37C298.675 243.322 301.286 243.132 303.88 242.8C306.469 242.35 309.079 242.037 311.7 241.86C318.75 241.43 331.9 239.94 344.15 235C348.84 233.11 348.52 229.61 349.43 223.32C350.58 215.32 351.71 201.89 351.5 196.57C351.22 189.22 351.4 186.63 348.89 181.64Z" fill="#C8856A"/>
<path d="M407.29 155.23C399.95 157.35 398.38 157.91 395.17 170.64C393.39 177.64 388.17 200.45 388.17 200.45L399 211.76C399 211.76 402.65 213.03 405.44 205.65C408.16 198.43 414.16 183.21 414.16 183.21C414.16 183.21 415.1 159.87 407.29 155.23Z" fill="#37474F"/>
<path d="M401.57 210.88C398.76 213.08 389.4 211.06 384.93 206.88C380.46 202.7 370.71 189.73 367.17 185.7C363.63 181.67 361.9 183.57 358.7 182.33C356.294 181.541 353.954 180.564 351.7 179.41C350.319 178.56 348.748 178.065 347.129 177.969C345.51 177.873 343.892 178.179 342.42 178.86C342.29 176.54 346.32 175.43 350.15 174.53C353.98 173.63 356.15 173.88 360.52 173.64C364.47 173.42 367.77 173.71 371.99 176.56C376.65 179.7 384.65 185.56 389.22 188.44C394.14 191.57 398.44 194.49 401.34 199.78C403.45 203.66 403.14 209.66 401.57 210.88Z" fill="#FFBDA7"/>
<path d="M236 192.47C247.57 193.07 248.93 196.29 256.83 203.12C264.58 209.83 273.69 217.42 273.69 217.42C273.69 217.42 296.88 213.53 298.62 212.84C300.401 211.973 301.974 210.732 303.23 209.2C304.182 207.973 305.283 206.871 306.51 205.92C307.51 205.22 308.51 204.47 309.51 203.69C310.51 202.91 311.59 202.01 311.7 203.83C311.749 204.827 311.498 205.816 310.98 206.67C310.64 207.21 310.15 207.61 309.78 208.11C309.4 208.637 309.065 209.196 308.78 209.78C307.78 211.73 310.55 211.44 311.78 211.37C313.724 211.303 315.603 210.659 317.18 209.52C318.59 208.45 320.25 206.94 322.01 208.29C322.084 208.36 322.179 208.406 322.28 208.42C322.362 208.41 322.439 208.375 322.5 208.32C322.911 208.039 323.381 207.858 323.874 207.79C324.367 207.723 324.869 207.77 325.34 207.93C325.508 207.985 325.661 208.078 325.787 208.203C325.912 208.329 326.005 208.482 326.06 208.65C326.27 209.5 325.25 210.21 325.22 211.06C325.227 211.282 325.254 211.503 325.3 211.72C325.356 212.627 325.094 213.525 324.56 214.26C324.07 215.02 323.44 215.68 322.91 216.41C322.684 216.718 322.499 217.054 322.36 217.41C321.869 218.914 320.891 220.213 319.58 221.1C316.939 223.083 313.899 224.468 310.67 225.16C307.31 225.89 303.93 224.81 300.54 225.16C298.37 225.41 281.54 232.37 271.35 234.77C269.23 235.27 266.44 233.98 264.41 232.83C260.31 230.48 248.09 220.83 240.23 214.73C229.65 203.79 236 192.47 236 192.47Z" fill="#FFC4C3"/>
<path d="M165.26 172.78C173.71 175.97 176.83 178.96 181.91 191.47C184.71 198.39 192.4 215.89 192.4 215.89L182.21 228.39C182.21 228.39 178.59 230 175.1 222.68C171.7 215.53 161.95 198.76 161.95 198.76C161.95 198.76 156.32 177.71 165.26 172.78Z" fill="#F0F0F0"/>
<path d="M178.86 227.45C181.86 229.93 192.09 228.04 197.1 223.63C202.11 219.22 213.1 205.44 217.1 201.17C221.1 196.9 222.89 199.03 226.42 197.79C229.95 196.55 231.27 196.32 234.15 194.84C237.85 192.95 240.01 193.15 244.08 193.73C242.17 190.18 240.13 190.73 236 189.59C231.87 188.45 229.45 188.69 224.75 188.28C220.47 187.91 216.87 188.12 212.18 191.07C207.01 194.34 198.11 200.41 193.04 203.43C187.59 206.67 182.81 209.7 179.49 215.36C177.06 219.53 177.2 226.06 178.86 227.45Z" fill="#B16668"/>
<path d="M162.35 170.29C161.78 170.03 161.35 169.48 160.82 169.18C160.418 168.969 159.959 168.892 159.51 168.96C159 169.04 158.51 169.31 158.03 169.36C157.55 169.41 157.03 169.27 156.51 169.3C156.076 169.349 155.654 169.471 155.26 169.66C153.493 170.373 151.75 171.133 150.03 171.94C148.888 172.499 147.78 173.123 146.71 173.81C145.588 174.527 144.555 175.372 143.63 176.33C140.1 179.97 126.78 192.41 126.4 192.78C126.4 192.78 123.99 189.24 118.04 180.78C112.09 172.32 107.11 165.15 99.6401 163.88C90.8401 171.05 99.9001 185.8 99.9001 185.8C99.9001 185.8 110 198.7 117 206.38C121.78 211.65 124.15 213.38 127.76 211.84C131.37 210.3 136.09 205.26 138.58 201.69C141.75 197.16 147.16 187.69 149.58 183.51C152 179.33 154.05 180.61 156.75 179.35C159.45 178.09 160.05 176.83 162.08 175.08C162.8 174.476 163.647 174.044 164.558 173.815C165.47 173.587 166.421 173.568 167.34 173.76C168.001 173.941 168.643 174.182 169.26 174.48C168.732 173.446 167.956 172.559 167 171.9C166.069 171.109 164.924 170.611 163.71 170.47C163.327 170.484 162.944 170.447 162.57 170.36L162.35 170.29Z" fill="#FFA8A7"/>
<path d="M99.5401 163C102.793 163.863 105.79 165.496 108.28 167.76C109.83 169.27 113.02 173.31 113.02 173.31C113.02 173.31 107.26 175.15 104.68 179.99C103.14 182.887 102.291 186.101 102.2 189.38C102.2 189.38 100.9 188.07 98.6001 185.17C96.3001 182.27 91.0501 169.08 99.5401 163Z" fill="#37474F"/>
</svg>
