<svg width="106" height="77" viewBox="0 0 106 77" fill="none" xmlns="http://www.w3.org/2000/svg">
<g clip-path="url(#clip0_1_269)">
<path d="M44.687 50.6051L50.8995 46.1084C38.9558 38.4134 31.1245 33.2201 31.1245 28.2801C31.1245 24.9551 34.6245 22.4218 39.2183 22.4218C44.0745 22.4218 45.9558 24.4801 50.9433 28.7551H55.012C59.912 24.6068 61.7058 22.4218 66.737 22.4218C70.5433 22.4218 73.5183 24.1318 74.4808 26.6018C76.012 26.4751 77.4558 26.4118 78.8558 26.4118C80.4308 26.4118 81.9183 26.5068 83.362 26.6651C82.312 20.6168 75.4433 16.0884 66.7808 16.0884C66.2558 16.0884 65.7745 16.1834 65.2495 16.2151C65.7745 15.1701 66.1245 14.0934 66.1245 12.9218C66.1245 7.66509 60.262 3.42175 52.9995 3.42175C45.737 3.42175 39.8745 7.66509 39.8745 12.9218C39.8745 14.0934 40.2245 15.1701 40.7495 16.2151C40.2245 16.1834 39.7433 16.0884 39.2183 16.0884C29.7683 16.0884 22.3745 21.4401 22.3745 28.2801C22.3745 35.9434 31.2995 41.9284 44.687 50.6051Z" fill="white"/>
<path d="M98.937 51.6818C97.537 51.1118 96.0495 50.7635 94.562 50.5735C94.8683 50.2568 95.2183 50.0035 95.4808 49.6868C100.206 43.7651 97.4933 36.4501 89.312 33.0301C80.1683 29.1985 68.487 31.7951 51.4683 35.8801L53.7433 42.0235C68.9245 38.4135 79.0745 36.0701 84.9808 38.5401C88.962 40.2185 90.2308 43.6385 87.9558 46.5518C85.5058 49.5918 82.137 49.7185 74.5245 50.7318L72.4683 53.2968C75.0058 58.4268 76.712 60.6751 74.1745 63.8101C71.8558 66.6918 67.1308 67.6101 63.1058 65.9635C62.8433 65.8685 62.6245 65.6785 62.362 65.5518C61.0495 67.6735 59.562 69.4785 57.8558 71.0301C58.162 71.1568 58.4245 71.3151 58.7308 71.4735C66.912 74.8935 77.0183 72.9301 81.7433 67.0085C82.0058 66.6918 82.137 66.3435 82.3558 65.9951C83.3183 66.8501 84.4558 67.6101 85.8558 68.1801C92.112 70.8085 100.162 69.2568 103.793 64.6968C107.425 60.1368 105.193 54.2785 98.937 51.6818Z" fill="white"/>
<path d="M54.3993 44.6201C51.1618 55.9568 48.8431 63.4618 42.9368 65.9318C38.9556 67.6101 34.1868 66.6918 31.8681 63.7784C29.4181 60.7384 30.9931 58.5218 33.5743 53.2651L31.5618 50.7001C24.1243 49.7184 20.6243 49.6551 18.1306 46.5201C15.8118 43.6384 17.0806 40.1868 21.1056 38.5084C21.4993 38.3501 21.9368 38.2551 22.3743 38.1601C20.8431 36.3868 19.5743 34.4551 18.7868 32.3018C18.0868 32.5234 17.3868 32.7451 16.6868 33.0301C8.50557 36.4501 5.79307 43.7651 10.5181 49.6868C10.7806 50.0034 11.1306 50.2568 11.4368 50.5734C9.94932 50.7634 8.46182 51.1118 7.06182 51.6818C0.805572 54.3101 -1.38193 60.1051 2.24932 64.6651C5.88057 69.2251 13.8868 70.7768 20.1868 68.1484C21.5868 67.5784 22.7243 66.8184 23.6868 65.9634C23.9056 66.3118 24.0368 66.6601 24.2993 66.9768C29.0243 72.8984 39.1306 74.8618 47.3118 71.4418C56.4556 67.6101 59.1681 58.9968 62.8431 46.2984L54.3993 44.6201Z" fill="white"/>
</g>
<defs>
<clipPath id="clip0_1_269">
<rect width="105" height="76" fill="white" transform="translate(0.499512 0.255127)"/>
</clipPath>
</defs>
</svg>
