<svg width="185" height="235" viewBox="0 0 185 235" fill="none" xmlns="http://www.w3.org/2000/svg">
<g id="freepik--Character--inject-12">
<path id="Vector" d="M150.643 41.8504C150.643 41.8504 168.35 77.3135 155.022 110.346C141.694 143.379 92.7382 190.727 87.3098 193.251C87.3098 193.251 99.8681 174.806 76.9385 174.957C54.0088 175.108 42.4937 169.888 40.0278 162.373C37.5619 154.858 51.1858 130.586 38.6554 124.756C26.1249 118.925 10.8943 120.672 0.667969 112.584C0.667969 112.584 24.5182 110.727 42.1255 109.048C60.6087 107.285 116.153 71.1231 120.639 44.5206" fill="#BA68C8"/>
<g id="Group" opacity="0.4">
<path id="Vector_2" d="M150.643 41.8504C150.643 41.8504 168.35 77.3135 155.022 110.346C141.694 143.379 92.7382 190.727 87.3098 193.251C87.3098 193.251 99.8681 174.806 76.9385 174.957C54.0088 175.108 42.4937 169.888 40.0278 162.373C37.5619 154.858 51.1858 130.586 38.6554 124.756C26.1249 118.925 10.8943 120.672 0.667969 112.584C0.667969 112.584 24.5182 110.727 42.1255 109.048C60.6087 107.285 116.153 71.1231 120.639 44.5206" fill="black"/>
</g>
<path id="Vector_3" d="M86.2107 102.915C86.1128 102.995 86.0084 103.068 85.8983 103.134L84.9666 103.723C84.1632 104.244 82.9749 104.943 81.4908 105.809C78.5228 107.509 74.3218 109.726 69.5295 111.874C65.4364 113.708 61.2468 115.348 56.9767 116.787C55.3365 117.334 54.0031 117.757 53.0714 118.023L52.0002 118.331C51.8776 118.373 51.7504 118.403 51.6209 118.419C51.7349 118.362 51.8544 118.315 51.9779 118.278L53.0324 117.924C53.9529 117.627 55.264 117.178 56.9042 116.604C60.1623 115.467 64.6144 113.773 69.4067 111.629C74.1991 109.486 78.3889 107.301 81.3848 105.642C82.88 104.818 84.0851 104.13 84.9052 103.65L85.8648 103.102C85.9725 103.028 86.0885 102.965 86.2107 102.915Z" fill="#263238"/>
<path id="Vector_4" d="M101.28 122.576C101.16 122.677 101.034 122.771 100.901 122.857L99.7852 123.619C98.8088 124.271 97.4141 125.23 95.7069 126.435C92.2814 128.834 87.6341 132.255 82.7134 136.271C77.7928 140.286 73.5416 144.135 70.5345 146.983C69.0337 148.406 67.8287 149.59 67.003 150.383L66.049 151.311C65.939 151.422 65.8216 151.527 65.6975 151.624C65.7919 151.502 65.8944 151.385 66.0043 151.275L66.9193 150.31C67.7227 149.476 68.9054 148.292 70.3894 146.852C73.3574 143.963 77.5975 140.073 82.5182 136.067C87.4388 132.062 92.1252 128.641 95.5842 126.279C97.3081 125.095 98.7252 124.161 99.7182 123.53L100.834 122.81C100.973 122.717 101.122 122.638 101.28 122.576Z" fill="#263238"/>
<path id="Vector_5" d="M99.2431 128.385C99.1961 128.458 99.1399 128.524 99.0757 128.584L98.5569 129.105C98.0994 129.559 97.4411 130.2 96.5819 130.977C94.9082 132.542 92.5092 134.628 89.7588 136.844C87.0083 139.061 84.4253 140.933 82.5061 142.258C81.5521 142.915 80.771 143.442 80.2243 143.791L79.5938 144.193C79.5218 144.244 79.4431 144.286 79.3595 144.318C79.3595 144.318 79.4265 144.25 79.5604 144.146L80.1573 143.708L82.3889 142.101C84.2579 140.745 86.8186 138.837 89.5579 136.636C92.2972 134.435 94.7129 132.365 96.4313 130.842L98.462 129.032L99.0199 128.542C99.165 128.432 99.2319 128.38 99.2431 128.385Z" fill="#263238"/>
<path id="Vector_6" d="M96.2582 212.109L93.4017 224.188L88.1965 233.127C88.1068 233.279 88.0518 233.447 88.0349 233.62C88.018 233.793 88.0396 233.968 88.0982 234.133C88.1569 234.298 88.2514 234.45 88.3759 234.579C88.5003 234.708 88.652 234.812 88.8214 234.884C89.0172 234.968 89.2319 235.008 89.4474 234.999C89.6629 234.99 89.8729 234.932 90.0599 234.832C92.4812 233.523 101.369 228.668 101.525 227.776C101.703 226.733 105.43 215.223 105.43 215.223L96.2582 212.109Z" fill="#263238"/>
<path id="Vector_7" d="M101.927 226.587C101.779 226.725 101.614 226.846 101.436 226.947L100.035 227.833L95.3992 230.738L90.7686 233.648C90.2107 233.987 89.742 234.279 89.3571 234.519C89.1847 234.636 88.9973 234.732 88.7992 234.806C88.9425 234.665 89.1014 234.539 89.2734 234.43C89.5914 234.201 90.0545 233.883 90.6347 233.486C91.7895 232.704 93.4242 231.645 95.2206 230.509C97.0171 229.372 98.6908 228.376 99.907 227.677C100.515 227.322 101.023 227.04 101.358 226.858C101.535 226.747 101.726 226.656 101.927 226.587Z" fill="#455A64"/>
<path id="Vector_8" d="M153.544 214.999L152.768 224.626C152.768 224.626 163 228.6 163.045 230.394H142.96L143.518 214.587L153.544 214.999Z" fill="#263238"/>
<path id="Vector_9" d="M162.415 229.773C162.159 229.8 161.9 229.8 161.645 229.773L159.547 229.711C157.778 229.658 155.335 229.585 152.629 229.554C149.923 229.523 147.485 229.523 145.711 229.554H143.613C143.356 229.57 143.098 229.56 142.843 229.523C143.097 229.475 143.355 229.451 143.613 229.45C144.104 229.419 144.824 229.387 145.711 229.356C147.48 229.299 149.929 229.262 152.635 229.299C155.34 229.335 157.79 229.429 159.558 229.533C160.44 229.585 161.154 229.638 161.65 229.679C161.907 229.692 162.163 229.723 162.415 229.773Z" fill="#455A64"/>
<path id="Vector_10" d="M108.572 117.877L90.8364 220.256L107.127 221.173L132.266 117.877H108.572Z" fill="#BA68C8"/>
<path id="Vector_11" d="M132.561 113.413L140.746 221.173H156.071V107.076L132.561 113.413Z" fill="#BA68C8"/>
<path id="Vector_12" d="M150.525 214.435C150.442 214.435 149.209 193.1 147.764 166.774C146.319 140.448 145.208 119.097 145.292 119.092C145.376 119.087 146.609 140.427 148.054 166.758C149.499 193.09 150.603 214.435 150.525 214.435Z" fill="#263238"/>
<path id="Vector_13" d="M156.071 214.435L155.954 214.472C155.854 214.472 155.697 214.524 155.502 214.55C155.106 214.613 154.526 214.686 153.828 214.769C152.406 214.931 150.431 215.124 148.249 215.291C143.892 215.661 140.333 215.812 140.338 215.624C140.338 215.624 140.394 215.624 140.495 215.624H140.958L142.631 215.499L148.21 215.046L153.789 214.587C155.206 214.487 156.133 214.425 156.071 214.435Z" fill="#263238"/>
<path id="Vector_14" d="M118.228 120.286C118.228 120.286 118.228 120.37 118.201 120.531C118.173 120.693 118.139 120.933 118.095 121.235C117.994 121.866 117.843 122.774 117.654 123.937C117.269 126.284 116.689 129.673 115.947 133.846C114.468 142.221 112.315 153.778 109.704 166.503C107.093 179.228 104.504 190.706 102.563 199.004C101.592 203.15 100.783 206.503 100.214 208.813C99.9293 209.961 99.7062 210.858 99.55 211.478L99.3714 212.167C99.3268 212.323 99.2989 212.401 99.2989 212.401C99.2989 212.401 99.2989 212.318 99.3435 212.162C99.3882 212.005 99.4272 211.76 99.4942 211.463C99.6336 210.842 99.8401 209.945 100.102 208.793C100.66 206.456 101.408 203.103 102.362 198.962C104.253 190.659 106.825 179.176 109.419 166.451C112.013 153.726 114.2 142.226 115.746 133.83C116.505 129.658 117.118 126.273 117.542 123.921C117.754 122.758 117.922 121.835 118.039 121.225C118.095 120.928 118.139 120.703 118.173 120.526C118.206 120.349 118.228 120.286 118.228 120.286Z" fill="#263238"/>
<path id="Vector_15" d="M108.766 214.435C108.547 214.468 108.324 214.477 108.102 214.461L106.3 214.42L100.353 214.195L94.4115 213.935L92.6095 213.857C92.3895 213.856 92.1697 213.844 91.9512 213.82C92.768 213.714 93.5944 213.687 94.4171 213.742C95.9402 213.742 98.0434 213.83 100.364 213.924C102.685 214.018 104.788 214.133 106.306 214.227C107.07 214.274 107.684 214.315 108.108 214.352C108.33 214.359 108.55 214.387 108.766 214.435Z" fill="#263238"/>
<g id="Group_2" opacity="0.3">
<path id="Vector_16" d="M107.712 122.857L108.064 120.823L131.841 119.567L130.943 123.274L107.712 122.857Z" fill="black"/>
</g>
<g id="Group_3" opacity="0.3">
<path id="Vector_17" d="M133.236 123.275L132.561 119.551L156.071 118.466L156.066 123.733L133.236 123.275Z" fill="black"/>
</g>
<path id="Vector_18" d="M110.101 42.1894L126.698 38.7369L140.646 39.2741L152.808 42.8882L145.89 75.316L119.412 77.5116L110.101 42.1894Z" fill="#263238"/>
<path id="Vector_19" d="M124.176 39.2742L106.713 42.8883L115.444 86.6069C115.444 86.6069 107.634 104.338 106.713 120.823L132.561 119.551C132.561 119.551 134.34 97.8247 133.732 89.4596C133.124 81.0945 132.717 66.4608 132.717 66.4608L124.176 39.2742Z" fill="#BA68C8"/>
<path id="Vector_20" d="M74.244 64.359C74.244 64.359 80.1689 58.7423 86.3504 55.7228C90.9085 53.4959 99.8349 50.7006 103.383 47.1125C104.681 45.8385 105.805 44.4197 106.73 42.8883L110.853 63.4777L93.3297 66.0853C93.3297 66.0853 95.9351 67.4151 94.3116 68.3643L105.291 80.3591L97.765 93.6265C97.765 93.6265 73.2286 73.8663 74.244 64.359Z" fill="#BA68C8"/>
<path id="Vector_21" d="M140.645 39.2742C142.767 39.5218 144.864 39.9299 146.916 40.4945C150.631 41.6419 156.913 42.8883 156.913 42.8883L147.987 87.1805C147.987 87.1805 160.121 101.199 156.913 118.352C156.913 118.352 140.148 119.587 132.561 119.551L132.461 65.6576C132.461 65.6576 138.815 58.0957 139.63 50.6797C140.444 43.2638 140.645 39.2742 140.645 39.2742Z" fill="#BA68C8"/>
<path id="Vector_22" d="M156.913 42.8883C156.913 42.8883 166.916 52.5728 172.423 56.2286C177.929 59.8844 184.858 65.3551 184.858 68.2652C184.747 70.0861 184.35 71.8819 183.681 73.5951C183.296 74.671 182.731 75.6831 182.007 76.5938C179.48 79.7229 172.785 87.8898 168.361 91.7647L157.203 80.7763L167.803 69.8245C167.803 69.8245 153.577 64.3382 152.874 62.8466C152.171 61.3551 156.913 42.8883 156.913 42.8883Z" fill="#BA68C8"/>
<path id="Vector_23" d="M132.354 71.4985C132.262 71.4351 132.176 71.3635 132.098 71.2847L131.4 70.6328L128.84 68.1712L120.159 59.6966L120.109 59.6444V59.5714L121.258 55.0655C121.431 54.3928 121.598 53.7305 121.766 53.0734L121.905 53.2402H116.203L116.259 53.0734C117.609 49.2506 118.764 45.9755 119.606 43.6287C120.019 42.4866 120.348 41.5739 120.588 40.9168C120.7 40.6196 120.789 40.3953 120.862 40.2024C120.888 40.1174 120.923 40.0352 120.968 39.9572C120.953 40.044 120.931 40.1295 120.901 40.2128C120.845 40.4005 120.767 40.6404 120.672 40.9429L119.779 43.66C118.97 46.0173 117.849 49.3028 116.544 53.1359L116.415 52.9691H121.944H122.128L122.089 53.1359C121.922 53.793 121.749 54.4554 121.581 55.1281C121.18 56.6927 120.795 58.1946 120.427 59.634L120.387 59.5141L128.996 68.0565L131.495 70.5754L132.159 71.2638C132.232 71.3363 132.297 71.4148 132.354 71.4985Z" fill="#263238"/>
<path id="Vector_24" d="M132.56 119.551C132.482 119.551 132.376 107.394 132.326 92.4008C132.276 77.4072 132.298 65.2455 132.376 65.2403C132.454 65.2351 132.56 77.3968 132.616 92.4008C132.672 107.405 132.644 119.551 132.56 119.551Z" fill="#263238"/>
<path id="Vector_25" d="M143.322 39.6704C143.36 39.7648 143.386 39.8628 143.401 39.9624C143.44 40.1815 143.495 40.4839 143.568 40.8177C143.707 41.5948 143.903 42.6743 144.126 44.0146L146.012 54.9299L146.039 55.1072H145.85L142.77 54.7213L142.921 54.5283L143.551 55.7278C143.975 56.5362 144.394 57.3341 144.795 58.0903L144.834 58.1685L144.779 58.2311L136.667 67.7018L134.234 70.5024L133.565 71.2533C133.495 71.3446 133.412 71.427 133.319 71.4985C133.381 71.4017 133.45 71.3093 133.526 71.222L134.151 70.445L136.516 67.5923L144.567 58.0381V58.1842C144.17 57.428 143.752 56.6196 143.322 55.8217L142.653 54.6118L142.53 54.3823L142.804 54.4136L145.883 54.81L145.727 54.9612C145.013 50.5961 144.388 46.7838 143.942 44.0094C143.735 42.6639 143.568 41.5791 143.445 40.8021C143.397 40.4544 143.358 40.1676 143.328 39.9416C143.318 39.8515 143.316 39.7608 143.322 39.6704Z" fill="#263238"/>
<path id="Vector_26" d="M130.134 101.934C129.542 101.261 128.387 100.891 127.83 101.569C127.548 101.785 127.343 102.077 127.243 102.405C127.144 102.733 127.154 103.082 127.272 103.405C127.367 103.602 127.504 103.779 127.673 103.926C127.843 104.072 128.042 104.186 128.259 104.26C128.476 104.334 128.707 104.366 128.938 104.356C129.169 104.345 129.395 104.291 129.604 104.198C129.806 104.089 129.982 103.942 130.12 103.766C130.258 103.59 130.355 103.389 130.405 103.176C130.455 102.962 130.456 102.742 130.41 102.528C130.363 102.314 130.269 102.112 130.134 101.934Z" fill="#263238"/>
<path id="Vector_27" d="M130.447 87.8585C129.856 87.1805 128.701 86.7894 128.143 87.4935C127.862 87.7108 127.659 88.0026 127.559 88.3303C127.46 88.6581 127.469 89.0064 127.585 89.3292C127.68 89.5265 127.816 89.704 127.986 89.8513C128.155 89.9985 128.354 90.1125 128.572 90.1864C128.789 90.2603 129.02 90.2927 129.252 90.2816C129.483 90.2705 129.709 90.2162 129.917 90.1219C130.12 90.0132 130.295 89.8661 130.433 89.6901C130.571 89.5141 130.668 89.3131 130.718 89.0999C130.768 88.8867 130.77 88.6662 130.723 88.4524C130.677 88.2386 130.582 88.0363 130.447 87.8585Z" fill="#263238"/>
<path id="Vector_28" d="M170.291 86.6955C169.7 86.0228 168.545 85.6525 167.987 86.3305C167.706 86.5474 167.502 86.8391 167.402 87.167C167.303 87.4949 167.312 87.8434 167.429 88.1662C167.524 88.3635 167.66 88.541 167.83 88.6883C167.999 88.8355 168.199 88.9495 168.416 89.0234C168.633 89.0973 168.865 89.1297 169.096 89.1186C169.327 89.1075 169.553 89.0532 169.761 88.9589C169.964 88.8502 170.14 88.7031 170.278 88.5271C170.415 88.3511 170.513 88.1501 170.562 87.9369C170.612 87.7238 170.614 87.5032 170.567 87.2894C170.521 87.0756 170.427 86.8733 170.291 86.6955Z" fill="#263238"/>
<path id="Vector_29" d="M97.6373 87.9888C97.0459 87.3108 95.891 86.9197 95.3331 87.6237C95.0518 87.8406 94.8478 88.1324 94.7481 88.4603C94.6485 88.7882 94.6579 89.1367 94.7752 89.4595C94.87 89.6568 95.0062 89.8343 95.1757 89.9816C95.3452 90.1288 95.5445 90.2428 95.762 90.3167C95.9794 90.3906 96.2105 90.423 96.4416 90.4119C96.6727 90.4008 96.8991 90.3465 97.1073 90.2522C97.3097 90.1435 97.4855 89.9964 97.6235 89.8204C97.7614 89.6444 97.8585 89.4433 97.9084 89.2302C97.9583 89.017 97.96 88.7965 97.9133 88.5827C97.8666 88.3689 97.7726 88.1666 97.6373 87.9888Z" fill="#263238"/>
<path id="Vector_30" d="M94.451 68.5573C93.0555 67.9516 91.5659 67.5572 90.038 67.3891C88.5035 67.3116 86.9654 67.4594 85.4799 67.8271C85.8759 67.6096 86.3076 67.4545 86.7575 67.3682C88.9302 66.8484 91.2272 67.0323 93.2738 67.8897C93.7035 68.0489 94.1014 68.2746 94.451 68.5573Z" fill="#263238"/>
<path id="Vector_31" d="M85.4799 66.0853C85.8202 65.8746 86.1981 65.7227 86.5957 65.6368C87.5493 65.3696 88.5404 65.2377 89.5358 65.2456C90.5333 65.2539 91.5241 65.3998 92.476 65.6785C92.8717 65.7775 93.2482 65.9342 93.5918 66.1426C92.267 65.7859 90.9019 65.5758 89.5247 65.5168C88.1567 65.552 86.7985 65.7429 85.4799 66.0853Z" fill="#263238"/>
<path id="Vector_32" d="M111.355 66.1375C111.254 65.8527 111.173 65.5617 111.115 65.2665L110.557 62.878C110.033 60.8284 109.33 58.0696 108.554 55.0188C107.779 51.9679 107.154 49.1465 106.808 47.0969C106.63 46.0539 106.507 45.2456 106.446 44.6719C106.394 44.3754 106.37 44.0753 106.373 43.7749C106.457 44.0641 106.519 44.3587 106.557 44.6562C106.652 45.2247 106.808 46.0487 107.009 47.0656C107.405 49.0996 108.058 51.8897 108.839 54.9562C109.62 58.0227 110.317 60.8128 110.758 62.8415C110.981 63.8532 111.149 64.6772 111.244 65.2457C111.306 65.5396 111.344 65.8379 111.355 66.1375Z" fill="#263238"/>
<path id="Vector_33" d="M156.294 43.8896C156.282 44.1983 156.241 44.5055 156.171 44.8075C156.065 45.4385 155.92 46.273 155.742 47.2899C155.368 49.4229 154.866 52.3017 154.314 55.4777C153.761 58.6537 153.198 61.5638 152.796 63.6498C152.584 64.6929 152.405 65.5377 152.272 66.1218C152.221 66.4266 152.143 66.7267 152.037 67.0188C152.049 66.7059 152.082 66.3941 152.138 66.0853C152.249 65.4543 152.394 64.6199 152.567 63.6029C152.941 61.4647 153.449 58.5911 154.001 55.4151C154.553 52.2391 155.117 49.329 155.519 47.2378C155.731 46.1947 155.909 45.3551 156.037 44.771C156.102 44.4721 156.187 44.1777 156.294 43.8896Z" fill="#263238"/>
<path id="Vector_34" d="M175.324 64.4477C175.324 64.4947 174.705 64.4477 173.723 64.4947C172.447 64.5051 171.212 64.9145 170.214 65.6576C169.303 66.4931 168.628 67.5272 168.25 68.6668C168.094 69.1461 167.908 69.6163 167.692 70.0749C167.754 69.573 167.877 69.0795 168.06 68.6042C168.397 67.4044 169.078 66.3133 170.03 65.449C170.588 64.9991 171.251 64.6776 171.966 64.5103C172.54 64.3722 173.13 64.3021 173.723 64.3017C174.118 64.2981 174.513 64.319 174.906 64.3643C175.05 64.3666 175.192 64.3949 175.324 64.4477Z" fill="#263238"/>
<path id="Vector_35" d="M177.985 66.8831C177.985 66.93 177.371 66.8831 176.389 66.9457C173.825 67.0849 171.345 67.8569 169.203 69.183C168.378 69.7045 167.915 70.0591 167.881 70.0226C167.848 69.9861 167.97 69.9027 168.171 69.7253C168.46 69.4725 168.765 69.2373 169.086 69.0213C171.212 67.5831 173.76 66.791 176.384 66.7527C176.777 66.7466 177.17 66.764 177.561 66.8049C177.706 66.806 177.85 66.8325 177.985 66.8831Z" fill="#263238"/>
<path id="Vector_36" d="M119.623 87.8585C118.976 87.7072 118.344 87.5012 117.737 87.2431C117.098 87.0675 116.478 86.8371 115.885 86.5547C116.56 86.5776 117.223 86.7247 117.838 86.9875C118.487 87.1685 119.093 87.4642 119.623 87.8585Z" fill="#263238"/>
<path id="Vector_37" d="M120.337 82.6173C120.382 82.6799 119.076 83.5143 117.609 84.7034C116.142 85.8924 115.06 86.9667 114.998 86.9094C115.676 85.9989 116.491 85.1855 117.419 84.4948C118.288 83.7378 119.271 83.1051 120.337 82.6173Z" fill="#263238"/>
<path id="Vector_38" d="M156.914 118.351C156.914 118.43 145.683 119.04 131.808 119.723C117.933 120.406 106.703 120.902 106.703 120.823C106.703 120.745 117.933 120.135 131.808 119.452C145.683 118.769 156.908 118.278 156.914 118.351Z" fill="#263238"/>
<g id="Group_4" opacity="0.3">
<path id="Vector_39" d="M167.268 69.543C166.917 68.5354 166.918 67.4495 167.271 66.4425C167.624 65.4355 168.311 64.5597 169.232 63.9419C169.611 63.6535 170.096 63.5167 170.582 63.5612C170.7 63.5772 170.813 63.6164 170.913 63.6763C171.014 63.7362 171.1 63.8153 171.165 63.9085C171.231 64.0016 171.274 64.1067 171.293 64.2168C171.311 64.3268 171.305 64.4393 171.274 64.5468C171.11 64.791 170.873 64.9849 170.593 65.1049C169.746 65.6465 169.105 66.4265 168.763 67.3317C168.425 68.2304 168.191 69.1606 168.066 70.1062" fill="black"/>
</g>
<g id="Group_5" opacity="0.3">
<path id="Vector_40" d="M116.393 53.0942C116.493 53.3758 118.49 53.5896 118.87 54.3615C119.163 55.1698 119.163 56.046 118.87 56.8543C118.581 57.6605 118.443 58.5075 118.463 59.3576C118.63 60.87 119.958 62.0121 121.196 63.0082C124.655 65.767 128.867 68.7449 132.354 71.5089C129.264 68.0669 125.235 64.5206 121.832 61.3915C121.294 60.9634 120.863 60.4291 120.571 59.827C120.37 59.0094 120.424 58.1549 120.728 57.3654C121.018 56.298 121.312 55.2289 121.609 54.1581C121.682 53.8817 121.855 53.4175 121.894 53.2663C121.481 53.1989 121.063 53.1657 120.644 53.1672C119.229 53.0666 117.809 53.0561 116.393 53.1359" fill="black"/>
</g>
<path id="Vector_41" d="M97.1788 89.2457C97.2188 89.0967 97.2788 88.953 97.3574 88.818C97.4913 88.5521 97.6977 88.1714 97.9655 87.7072C98.6776 86.5037 99.4793 85.3483 100.364 84.2496C101.245 83.1439 102.209 82.0982 103.249 81.1205C103.65 80.7502 103.985 80.4582 104.225 80.2652C104.465 80.0722 104.599 79.9732 104.616 79.9888C104.235 80.4318 103.829 80.8549 103.399 81.2561C102.641 82.0279 101.625 83.1179 100.61 84.3852C99.5945 85.6524 98.7409 86.8832 98.1607 87.775C97.8652 88.2832 97.5373 88.7743 97.1788 89.2457Z" fill="#263238"/>
<path id="Vector_42" d="M101.314 76.3278C101.347 76.3643 100.706 76.9432 99.7459 77.9445C97.2388 80.5559 95.2088 83.5353 93.7374 86.7633C93.1795 87.9993 92.8782 88.7868 92.8336 88.7763C92.8629 88.5808 92.9134 88.3886 92.9842 88.2027C93.0958 87.8376 93.2855 87.3213 93.5421 86.6903C94.9222 83.3956 96.9764 80.3841 99.5897 77.8245C100.092 77.3343 100.51 76.9588 100.817 76.7085C100.969 76.5666 101.135 76.439 101.314 76.3278Z" fill="#263238"/>
<path id="Vector_43" d="M173.221 86.8727C173.055 86.7469 172.906 86.6034 172.775 86.4451L171.62 85.2456C170.638 84.2391 169.249 82.8675 167.676 81.3968C166.103 79.9261 164.63 78.6328 163.547 77.7201L162.259 76.6406C162.089 76.5186 161.936 76.3786 161.801 76.2234C161.993 76.3127 162.171 76.4249 162.331 76.5572C162.66 76.7866 163.123 77.1308 163.681 77.5741C164.797 78.4555 166.298 79.7332 167.877 81.2247C169.456 82.7163 170.828 84.093 171.782 85.1413C172.256 85.6628 172.624 86.0957 172.898 86.3981C173.025 86.5443 173.133 86.7035 173.221 86.8727Z" fill="#263238"/>
<path id="Vector_44" d="M103.701 83.1283L107.355 84.9692L115.462 87.1179C115.462 87.1179 113.788 97.4856 112.733 98.3722C111.679 99.2587 99.8348 89.9445 99.8348 89.9445L103.701 83.1283Z" fill="#FFBE9D"/>
<path id="Vector_45" d="M158.961 82.5077L156.322 84.4269L148.718 87.8116C148.718 87.8116 152.233 97.7673 153.416 98.4765C154.598 99.1858 164.629 88.161 164.629 88.161L158.961 82.5077Z" fill="#FFBE9D"/>
<path id="Vector_46" d="M121.525 7.67548C121.419 10.3456 117.62 11.9623 117.665 14.6325C117.665 15.7746 118.446 16.8072 118.596 17.9441C118.797 19.4721 117.882 20.9115 117.542 22.4187C116.85 25.5478 118.781 28.8021 121.648 30.5022C124.516 32.2023 128.109 32.5257 131.473 32.098" fill="#263238"/>
<path id="Vector_47" d="M144.501 7.03923C144.389 8.4734 145.399 9.75111 146.42 10.8254C147.441 11.8998 148.573 13.021 148.791 14.4552C149.181 16.9741 146.559 19.3105 147.089 21.8085C147.379 23.1436 148.551 24.2179 148.763 25.5687C148.975 26.9194 148.205 28.1762 147.29 29.1463C146.375 30.1163 145.287 29.9911 144.467 31.0654C143.513 32.2711 142.301 33.2781 140.908 34.0224C137.951 35.54 134.403 33.3497 132.974 32.9794" fill="#263238"/>
<path id="Vector_48" d="M120.951 9.24007C120.912 7.9415 122.195 6.93497 123.49 6.46039C124.784 5.98582 126.223 5.8085 127.395 5.07838C128.416 4.43692 129.102 3.43561 129.967 2.61683C131.033 1.60756 132.366 0.88111 133.831 0.511792C135.296 0.142474 136.839 0.143552 138.304 0.514913C139.768 0.886275 141.1 1.61459 142.164 2.62534C143.229 3.63609 143.987 4.89299 144.361 6.26743C144.857 8.1136 144.517 10.304 142.955 11.5295C141.147 12.9585 138.464 12.6403 136.143 12.1971C133.822 11.7538 131.177 11.3261 129.264 12.5986C128.098 13.3705 127.428 14.6169 126.714 15.7747C126 16.9324 125.102 18.111 123.752 18.5439C122.402 18.9768 120.572 18.231 120.516 16.8959" fill="#263238"/>
<path id="Vector_49" d="M126.429 9.49553C125.85 9.55417 125.315 9.81391 124.931 10.2234C124.547 10.6328 124.341 11.1622 124.354 11.7068L125.743 41.0524C125.799 44.5153 131.222 46.4657 135.194 46.3771C139.2 46.2936 139.334 44.4527 139.378 41.1619C139.462 35.6495 139.456 33.5843 139.462 33.6156C139.468 33.6469 144.522 32.8177 145.56 26.6377C146.073 23.5608 145.895 18.523 145.61 14.403C145.353 10.7002 142.714 6.15783 138.765 6.55418L126.429 9.49553Z" fill="#FFBE9D"/>
<path id="Vector_50" d="M143.512 17.9389C143.515 18.1451 143.432 18.3442 143.279 18.4934C143.127 18.6426 142.918 18.73 142.698 18.7368C142.59 18.7453 142.482 18.7336 142.379 18.7024C142.276 18.6711 142.181 18.621 142.1 18.5548C142.018 18.4887 141.952 18.408 141.904 18.3175C141.856 18.2269 141.828 18.1283 141.822 18.0275C141.819 17.8182 141.905 17.6162 142.06 17.4657C142.216 17.3153 142.429 17.2285 142.653 17.2244C142.76 17.218 142.867 17.2315 142.968 17.2641C143.069 17.2967 143.162 17.3476 143.242 17.4141C143.322 17.4805 143.387 17.5611 143.433 17.6512C143.48 17.7413 143.507 17.839 143.512 17.9389Z" fill="#263238"/>
<path id="Vector_51" d="M144.45 17.0315C144.344 17.1306 143.697 16.6873 142.776 16.6925C141.856 16.6977 141.197 17.1254 141.102 17.0211C141.008 16.9168 141.158 16.7864 141.454 16.5882C141.846 16.3312 142.314 16.1946 142.793 16.1971C143.267 16.1965 143.73 16.3352 144.115 16.5934C144.405 16.7968 144.5 16.9846 144.45 17.0315Z" fill="#263238"/>
<path id="Vector_52" d="M134.659 17.9389C134.662 18.1451 134.578 18.3442 134.426 18.4934C134.274 18.6426 134.065 18.73 133.844 18.7368C133.737 18.7453 133.628 18.7336 133.526 18.7024C133.423 18.6711 133.328 18.621 133.246 18.5549C133.165 18.4888 133.098 18.4081 133.05 18.3175C133.003 18.2269 132.975 18.1283 132.969 18.0276C132.965 17.8208 133.049 17.6212 133.201 17.4711C133.353 17.3211 133.562 17.2326 133.783 17.2244C133.891 17.2159 134 17.2278 134.103 17.2593C134.206 17.2909 134.301 17.3415 134.383 17.4082C134.465 17.4748 134.531 17.5562 134.579 17.6473C134.626 17.7385 134.653 17.8377 134.659 17.9389Z" fill="#263238"/>
<path id="Vector_53" d="M135.479 17.2089C135.373 17.308 134.731 16.8699 133.805 16.8699C132.879 16.8699 132.221 17.3028 132.131 17.1985C132.042 17.0942 132.187 16.969 132.477 16.7656C132.872 16.5091 133.342 16.3742 133.822 16.3797C134.296 16.3755 134.759 16.5125 135.144 16.7708C135.434 16.9742 135.529 17.162 135.479 17.2089Z" fill="#263238"/>
<path id="Vector_54" d="M138.804 23.5244C139.286 23.3841 139.784 23.2983 140.288 23.2688C140.523 23.2688 140.74 23.2062 140.779 23.055C140.798 22.8296 140.744 22.6042 140.623 22.4083C140.4 21.8868 140.171 21.334 139.931 20.7551C138.966 18.3926 138.257 16.4578 138.375 16.4213C138.492 16.3848 139.34 18.2675 140.299 20.6247C140.528 21.2088 140.751 21.7616 140.963 22.2936C141.11 22.5563 141.154 22.8591 141.086 23.1489C141.054 23.2268 141.002 23.2964 140.935 23.3518C140.868 23.4072 140.788 23.4467 140.701 23.467C140.574 23.5001 140.443 23.5176 140.311 23.5191C139.81 23.5782 139.305 23.58 138.804 23.5244Z" fill="#263238"/>
<path id="Vector_55" d="M139.462 33.6157C136.349 33.6658 133.282 32.9076 130.603 31.4253C130.675 31.4253 133.041 35.7226 139.373 35.0759L139.462 33.6157Z" fill="#EB996E"/>
<path id="Vector_56" d="M138.424 25.5792C138.249 25.3774 138.022 25.2198 137.765 25.1206C137.508 25.0213 137.228 24.9836 136.952 25.0107C136.75 25.0291 136.555 25.0847 136.377 25.1743C136.199 25.2638 136.041 25.3854 135.914 25.5322C135.785 25.6767 135.709 25.8558 135.697 26.0435C135.685 26.2311 135.738 26.4174 135.847 26.5752C135.994 26.7265 136.186 26.8339 136.399 26.8839C136.611 26.934 136.834 26.9246 137.041 26.8569C137.468 26.7039 137.859 26.4735 138.19 26.1789C138.292 26.1096 138.379 26.0229 138.447 25.9233C138.481 25.8773 138.499 25.8228 138.499 25.7669C138.499 25.711 138.481 25.6565 138.447 25.6104" fill="#BA68C8"/>
<path id="Vector_57" d="M136.12 24.1189C136.271 24.1189 136.276 25.0368 137.124 25.6835C137.972 26.3301 139.027 26.205 139.032 26.3614C139.038 26.5179 138.798 26.544 138.357 26.5544C137.776 26.5631 137.211 26.3782 136.762 26.0329C136.329 25.7044 136.051 25.231 135.986 24.7134C135.958 24.364 136.053 24.1137 136.12 24.1189Z" fill="#263238"/>
<path id="Vector_58" d="M135.886 15.712C135.796 15.9467 134.887 15.8372 133.816 15.9571C132.745 16.0771 131.88 16.3587 131.74 16.1501C131.673 16.051 131.824 15.8319 132.175 15.6286C132.639 15.3499 133.165 15.1749 133.713 15.117C134.26 15.0591 134.815 15.1199 135.333 15.2948C135.729 15.4199 135.925 15.6025 135.886 15.712Z" fill="#263238"/>
<path id="Vector_59" d="M144.104 14.5596C143.948 14.7578 143.317 14.5596 142.564 14.5596C141.811 14.5596 141.164 14.69 141.019 14.4918C140.952 14.3927 141.052 14.1945 141.331 14.012C141.706 13.791 142.143 13.6794 142.586 13.6915C143.029 13.7035 143.459 13.8387 143.819 14.0798C144.087 14.2675 144.176 14.4553 144.104 14.5596Z" fill="#263238"/>
<path id="Vector_60" d="M123.635 30.1685C125.454 30.5127 125.616 29.647 126.983 28.4684C127.656 27.8723 128.172 27.1379 128.49 26.3233C128.807 25.5087 128.918 24.6362 128.812 23.7748C128.606 22.2572 127.73 20.7135 128.294 19.2741C129.036 17.3758 131.886 16.7917 132.64 14.8986C133.08 13.793 132.684 12.5048 133.198 11.4253C133.711 10.3458 134.81 9.82945 135.92 9.45396C137.03 9.07847 138.224 8.81771 139.161 8.13974C140.099 7.46177 140.673 6.17885 140.071 5.22969C135.134 5.7827 130.285 6.88391 125.627 8.51002C124.55 8.88551 123.395 9.33923 122.782 10.2362C122.168 11.1332 122.134 12.411 122.196 13.5479C122.471 19.1107 122.746 24.6596 123.021 30.1946" fill="#263238"/>
<path id="Vector_61" d="M119.473 17.5844C119.37 16.5562 118.909 15.588 118.163 14.8267C117.416 14.0655 116.424 13.5529 115.338 13.367C114.251 13.1811 113.129 13.3319 112.143 13.7967C111.156 14.2614 110.359 15.0145 109.872 15.9416C108.957 17.6887 109.275 19.8112 110.134 21.5844C111.15 23.6704 113.236 25.6105 115.713 25.5062C118.04 25.4071 119.909 23.5035 120.578 21.4175C121.248 19.3314 120.98 17.1046 120.701 14.9455" fill="#263238"/>
<path id="Vector_62" d="M118.178 26.0276C118.038 25.9305 117.921 25.8081 117.832 25.6677C117.573 25.2948 117.405 24.8726 117.341 24.4317C117.244 23.7812 117.265 23.1201 117.403 22.476C117.537 21.7511 117.799 20.9897 117.961 20.1814C118.172 19.4349 118.221 18.6565 118.106 17.8919C117.972 17.2035 117.62 16.6194 117.47 16.077C117.321 15.6499 117.308 15.1918 117.431 14.7576C117.537 14.4499 117.676 14.3247 117.687 14.3352C117.698 14.3456 117.604 14.4916 117.542 14.7837C117.469 15.1987 117.512 15.6243 117.665 16.0197C117.938 16.6146 118.172 17.2241 118.368 17.845C118.506 18.6421 118.465 19.4576 118.245 20.2387C118.05 21.0627 117.782 21.8033 117.637 22.523C117.493 23.1409 117.452 23.7759 117.514 24.4056C117.608 24.9846 117.835 25.5378 118.178 26.0276Z" fill="#455A64"/>
<path id="Vector_63" d="M118.106 18.6273C117.845 19.0028 117.498 19.3197 117.091 19.5556C116.138 20.1829 115.006 20.5283 113.841 20.5469C112.676 20.5655 111.532 20.2565 110.558 19.6599C110.144 19.4375 109.788 19.133 109.514 18.7681C109.548 18.7316 109.927 19.0967 110.669 19.4982C111.629 20.025 112.727 20.294 113.84 20.2756C114.953 20.2572 116.039 19.9521 116.979 19.3939C117.682 18.9506 118.05 18.5699 118.106 18.6273Z" fill="#455A64"/>
<path id="Vector_64" d="M117.755 19.5712C117.639 19.9259 117.45 20.2557 117.197 20.5412C116.63 21.2665 115.915 21.8786 115.092 22.3416C114.269 22.8046 113.355 23.1092 112.404 23.2375C112.016 23.3115 111.616 23.3115 111.227 23.2375C111.604 23.1519 111.986 23.0857 112.371 23.0393C113.278 22.8625 114.148 22.5452 114.943 22.1006C115.734 21.6523 116.441 21.0849 117.035 20.4213C117.487 19.9154 117.716 19.5504 117.755 19.5712Z" fill="#455A64"/>
<path id="Vector_65" d="M119.422 28.0929C119.422 28.0929 119.394 28.0929 119.35 28.0199C119.282 27.941 119.22 27.8573 119.166 27.7696C118.953 27.437 118.805 27.0713 118.73 26.6901C118.606 26.0827 118.642 25.456 118.836 24.8648C119.087 24.069 119.633 23.3829 120.376 22.9299C121.157 22.4084 122.178 22.0538 122.831 21.2298C122.994 21.0242 123.11 20.7893 123.172 20.5398C123.233 20.2903 123.239 20.0316 123.188 19.78C123.062 19.2297 122.875 18.6932 122.63 18.1789C122.371 17.5914 122.244 16.96 122.259 16.3246C122.273 15.6891 122.428 15.0633 122.714 14.4866C123.013 13.8672 123.476 13.329 124.058 12.9221C124.665 12.5267 125.356 12.2581 126.084 12.1346C126.798 11.9833 127.512 11.8947 128.176 11.7069C128.824 11.5436 129.42 11.2338 129.911 10.8047C130.353 10.3598 130.623 9.78839 130.675 9.18279C130.735 8.57909 130.837 7.97977 130.982 7.38878C131.275 6.27764 131.893 5.26465 132.767 4.46308C133.534 3.77438 134.507 3.31972 135.557 3.15929C136.318 3.03836 137.101 3.12106 137.815 3.39787C138.529 3.67467 139.144 4.13432 139.59 4.72384C139.828 5.03966 140.001 5.39305 140.104 5.76687C140.145 5.89561 140.167 6.0289 140.171 6.16322C140.044 5.66573 139.815 5.19621 139.496 4.78121C139.113 4.30371 138.614 3.91915 138.039 3.65995C137.276 3.31996 136.417 3.21235 135.585 3.35225C134.577 3.51424 133.645 3.9579 132.912 4.62475C132.09 5.40707 131.511 6.38437 131.239 7.45136C131.097 8.04089 130.996 8.63842 130.937 9.24016C130.877 9.90077 130.585 10.5242 130.106 11.0133C129.576 11.4742 128.932 11.8055 128.232 11.9781C127.54 12.1763 126.82 12.2649 126.123 12.4162C125.433 12.5331 124.778 12.7836 124.198 13.1515C123.656 13.5307 123.224 14.031 122.943 14.6066C122.672 15.1513 122.525 15.7421 122.51 16.3423C122.494 16.9426 122.611 17.5393 122.853 18.0955C123.102 18.6262 123.289 19.1805 123.411 19.7487C123.465 20.031 123.457 20.3208 123.386 20.5999C123.315 20.8789 123.183 21.1413 122.998 21.3706C122.273 22.2572 121.224 22.6014 120.466 23.0968C119.75 23.518 119.218 24.1631 118.965 24.9169C118.764 25.4829 118.712 26.0858 118.814 26.6744C118.919 27.179 119.125 27.6604 119.422 28.0929Z" fill="#455A64"/>
<path id="Vector_66" d="M119.863 10.8411C119.814 10.7522 119.785 10.6544 119.78 10.5543C119.757 10.2659 119.835 9.9785 120.003 9.7355C120.263 9.34277 120.656 9.04194 121.119 8.88022C121.733 8.69725 122.39 8.67739 123.015 8.82285C123.707 8.94802 124.427 9.20356 125.214 9.34437C125.616 9.44941 126.038 9.47257 126.451 9.4123C126.864 9.35202 127.258 9.20971 127.607 8.99495C128.31 8.47344 128.661 7.62858 129.018 6.7733C129.381 5.85492 129.897 4.99598 130.547 4.2283C131.812 2.72333 133.58 1.65828 135.568 1.20351C136.439 1.01136 137.348 1.03292 138.207 1.2661C138.951 1.48777 139.612 1.90184 140.115 2.46037C140.539 2.91952 140.795 3.49324 140.846 4.09792C140.892 4.5495 140.817 5.00463 140.628 5.42257C140.516 5.68641 140.347 5.92598 140.132 6.12662C140.063 6.20264 139.98 6.26627 139.886 6.31436C140.159 6.04493 140.374 5.73003 140.522 5.38607C140.683 4.97979 140.738 4.54373 140.684 4.11357C140.622 3.54516 140.368 3.00999 139.959 2.58553C139.463 2.07188 138.823 1.69798 138.112 1.50599C137.29 1.29752 136.425 1.28497 135.596 1.46949C133.682 1.93012 131.984 2.96756 130.765 4.42126C130.129 5.15746 129.623 5.98297 129.264 6.86717C128.896 7.72246 128.533 8.63511 127.746 9.19313C127.367 9.45906 126.914 9.61827 126.441 9.65206C126.007 9.68295 125.571 9.65485 125.147 9.56862C124.332 9.40695 123.624 9.14098 122.954 9.0106C122.364 8.85794 121.742 8.85794 121.152 9.0106C120.718 9.15262 120.344 9.4214 120.086 9.77722C119.919 10.0002 119.829 10.2662 119.83 10.5386C119.841 10.742 119.88 10.8359 119.863 10.8411Z" fill="#455A64"/>
</g>
</svg>
